<?xml version="1.0" encoding="UTF-8" standalone="no"?><!DOCTYPE svg PUBLIC "-//W3C//DTD SVG 1.1//EN" "http://www.w3.org/Graphics/SVG/1.1/DTD/svg11.dtd"><svg width="100%" height="100%" viewBox="0 0 84 28" version="1.1" xmlns="http://www.w3.org/2000/svg" xmlns:xlink="http://www.w3.org/1999/xlink" xml:space="preserve" xmlns:serif="http://www.serif.com/" style="fill-rule:evenodd;clip-rule:evenodd;stroke-linecap:round;stroke-linejoin:round;stroke-miterlimit:1.5;"><path d="M50.124,14.369l0.063,0.001l0.064,0.002l0.064,0.003l0.063,0.004l0.063,0.004l0.063,0.005l0.063,0.006l0.062,0.007l0.063,0.008l0.062,0.008l0.061,0.009l0.062,0.01l0.061,0.01l0.061,0.012l0.061,0.012l0.06,0.012l0.061,0.014l0.059,0.014l0.06,0.015l0.059,0.016l0.06,0.016l0.058,0.017l0.059,0.018l0.058,0.019l0.058,0.019l0.057,0.02l0.057,0.02l0.114,0.043l0.112,0.046l0.111,0.049l0.109,0.051l0.108,0.053l0.106,0.057l0.105,0.058l0.103,0.061l0.102,0.064l0.1,0.065l0.098,0.069l0.096,0.07l0.095,0.073l0.093,0.075l0.091,0.077l0.089,0.079l0.088,0.081l0.085,0.083l0.083,0.085l0.081,0.088l0.08,0.089l0.077,0.091l0.074,0.093l0.073,0.095l0.071,0.096l0.068,0.098l0.065,0.1l0.064,0.102l0.061,0.103l0.059,0.105l0.056,0.106l0.053,0.108l0.051,0.109l0.049,0.111l0.046,0.112l0.043,0.114l0.02,0.057l0.02,0.057l0.019,0.058l0.019,0.058l0.018,0.059l0.017,0.059l0.016,0.059l0.016,0.059l0.015,0.06l0.014,0.06l0.014,0.06l0.012,0.06l0.012,0.061l0.012,0.061l0.01,0.061l0.01,0.062l0.009,0.061l0.008,0.062l0.008,0.063l0.007,0.062l0.006,0.063l0.005,0.063l0.004,0.063l0.004,0.063l0.003,0.064l0.002,0.064l0.001,0.064l0,0.064l0,3.359l0,0.064l-0.001,0.064l-0.002,0.064l-0.003,0.063l-0.004,0.063l-0.004,0.064l-0.005,0.062l-0.006,0.063l-0.007,0.063l-0.008,0.062l-0.008,0.062l-0.009,0.062l-0.01,0.061l-0.01,0.061l-0.012,0.061l-0.012,0.061l-0.012,0.061l-0.014,0.06l-0.014,0.06l-0.015,0.059l-0.016,0.06l-0.016,0.059l-0.017,0.059l-0.018,0.058l-0.019,0.058l-0.019,0.058l-0.02,0.058l-0.02,0.057l-0.043,0.113l-0.046,0.112l-0.049,0.111l-0.051,0.109l-0.053,0.108l-0.056,0.106l-0.059,0.105l-0.061,0.103l-0.064,0.102l-0.065,0.1l-0.068,0.098l-0.071,0.097l-0.073,0.094l-0.074,0.093l-0.077,0.091l-0.08,0.09l-0.081,0.087l-0.083,0.085l-0.085,0.083l-0.088,0.082l-0.089,0.079l-0.091,0.077l-0.093,0.075l-0.095,0.072l-0.096,0.071l-0.098,0.068l-0.1,0.066l-0.102,0.063l-0.103,0.061l-0.105,0.059l-0.106,0.056l-0.108,0.054l-0.109,0.051l-0.111,0.048l-0.112,0.046l-0.114,0.043l-0.057,0.021l-0.057,0.019l-0.058,0.02l-0.058,0.018l-0.059,0.018l-0.058,0.017l-0.06,0.016l-0.059,0.016l-0.06,0.015l-0.059,0.014l-0.061,0.014l-0.06,0.013l-0.061,0.012l-0.061,0.011l-0.061,0.011l-0.062,0.009l-0.061,0.009l-0.062,0.009l-0.063,0.007l-0.062,0.007l-0.063,0.006l-0.063,0.005l-0.063,0.005l-0.063,0.003l-0.064,0.003l-0.064,0.002l-0.063,0.001l-0.065,0.001l-15.202,0l-0.065,-0.001l-0.063,-0.001l-0.064,-0.002l-0.064,-0.003l-0.063,-0.003l-0.063,-0.005l-0.063,-0.005l-0.063,-0.006l-0.062,-0.007l-0.063,-0.007l-0.062,-0.009l-0.061,-0.009l-0.062,-0.009l-0.061,-0.011l-0.061,-0.011l-0.061,-0.012l-0.06,-0.013l-0.061,-0.014l-0.059,-0.014l-0.06,-0.015l-0.059,-0.016l-0.059,-0.016l-0.059,-0.017l-0.059,-0.018l-0.058,-0.018l-0.058,-0.02l-0.057,-0.019l-0.057,-0.021l-0.114,-0.043l-0.112,-0.046l-0.111,-0.048l-0.109,-0.051l-0.108,-0.054l-0.106,-0.056l-0.105,-0.059l-0.103,-0.061l-0.102,-0.063l-0.1,-0.066l-0.098,-0.068l-0.096,-0.071l-0.095,-0.072l-0.093,-0.075l-0.091,-0.077l-0.089,-0.079l-0.088,-0.082l-0.085,-0.083l-0.083,-0.085l-0.081,-0.087l-0.08,-0.09l-0.077,-0.091l-0.074,-0.093l-0.073,-0.094l-0.07,-0.097l-0.069,-0.098l-0.065,-0.1l-0.064,-0.102l-0.061,-0.103l-0.059,-0.105l-0.056,-0.106l-0.053,-0.108l-0.051,-0.109l-0.049,-0.111l-0.046,-0.112l-0.043,-0.113l-0.02,-0.057l-0.02,-0.058l-0.019,-0.058l-0.019,-0.058l-0.018,-0.058l-0.017,-0.059l-0.016,-0.059l-0.016,-0.06l-0.015,-0.059l-0.014,-0.06l-0.014,-0.06l-0.012,-0.061l-0.012,-0.061l-0.012,-0.061l-0.01,-0.061l-0.01,-0.061l-0.009,-0.062l-0.008,-0.062l-0.008,-0.062l-0.007,-0.063l-0.006,-0.063l-0.005,-0.062l-0.004,-0.064l-0.004,-0.063l-0.003,-0.063l-0.002,-0.064l-0.001,-0.064l0,-0.064l0,-3.359l0,-0.064l0.001,-0.064l0.002,-0.064l0.003,-0.064l0.004,-0.063l0.004,-0.063l0.005,-0.063l0.006,-0.063l0.007,-0.062l0.008,-0.063l0.008,-0.062l0.009,-0.061l0.01,-0.062l0.01,-0.061l0.012,-0.061l0.012,-0.061l0.012,-0.06l0.014,-0.06l0.014,-0.06l0.015,-0.06l0.016,-0.059l0.016,-0.059l0.017,-0.059l0.018,-0.059l0.019,-0.058l0.019,-0.058l0.02,-0.057l0.02,-0.057l0.043,-0.114l0.046,-0.112l0.049,-0.111l0.051,-0.109l0.053,-0.108l0.056,-0.106l0.059,-0.105l0.061,-0.103l0.064,-0.102l0.065,-0.1l0.069,-0.098l0.07,-0.096l0.073,-0.095l0.074,-0.093l0.077,-0.091l0.08,-0.089l0.081,-0.088l0.083,-0.085l0.085,-0.083l0.088,-0.081l0.089,-0.079l0.091,-0.077l0.093,-0.075l0.095,-0.073l0.096,-0.07l0.098,-0.069l0.1,-0.065l0.102,-0.064l0.103,-0.061l0.105,-0.058l0.106,-0.057l0.108,-0.053l0.109,-0.051l0.111,-0.049l0.112,-0.046l0.114,-0.043l0.057,-0.02l0.057,-0.02l0.058,-0.019l0.058,-0.019l0.059,-0.018l0.059,-0.017l0.059,-0.016l0.059,-0.016l0.06,-0.015l0.059,-0.014l0.061,-0.014l0.06,-0.012l0.061,-0.012l0.061,-0.012l0.061,-0.01l0.062,-0.01l0.061,-0.009l0.062,-0.008l0.063,-0.008l0.062,-0.007l0.063,-0.006l0.063,-0.005l0.063,-0.004l0.063,-0.004l0.064,-0.003l0.064,-0.002l0.063,-0.001l0.065,0l15.202,0l0.065,0Zm-15.264,0.95l-0.055,0l-0.052,0.001l-0.052,0.002l-0.052,0.002l-0.051,0.003l-0.051,0.003l-0.051,0.005l-0.051,0.005l-0.05,0.005l-0.051,0.006l-0.05,0.007l-0.05,0.007l-0.049,0.008l-0.05,0.009l-0.049,0.009l-0.049,0.009l-0.049,0.011l-0.049,0.011l-0.048,0.011l-0.048,0.012l-0.048,0.013l-0.048,0.013l-0.047,0.014l-0.047,0.014l-0.047,0.015l-0.047,0.016l-0.046,0.016l-0.044,0.015l-0.094,0.036l-0.091,0.037l-0.089,0.039l-0.088,0.042l-0.087,0.043l-0.086,0.045l-0.085,0.048l-0.084,0.049l-0.082,0.051l-0.081,0.054l-0.079,0.055l-0.078,0.057l-0.077,0.059l-0.075,0.06l-0.074,0.063l-0.072,0.064l-0.071,0.066l-0.069,0.067l-0.068,0.069l-0.065,0.071l-0.064,0.072l-0.063,0.074l-0.06,0.075l-0.059,0.077l-0.057,0.078l-0.055,0.079l-0.054,0.081l-0.051,0.082l-0.049,0.084l-0.048,0.085l-0.045,0.086l-0.043,0.087l-0.042,0.088l-0.039,0.089l-0.037,0.091l-0.036,0.094l-0.015,0.044l-0.016,0.046l-0.016,0.047l-0.015,0.047l-0.014,0.047l-0.014,0.047l-0.013,0.048l-0.013,0.048l-0.012,0.048l-0.011,0.048l-0.011,0.049l-0.011,0.049l-0.009,0.049l-0.01,0.049l-0.008,0.05l-0.008,0.049l-0.007,0.05l-0.007,0.05l-0.006,0.051l-0.006,0.05l-0.004,0.051l-0.005,0.051l-0.003,0.051l-0.003,0.051l-0.002,0.052l-0.002,0.052l-0.001,0.052l0,0.055l0,3.353l0,0.055l0.001,0.052l0.002,0.051l0.002,0.052l0.003,0.051l0.003,0.051l0.005,0.051l0.004,0.051l0.006,0.051l0.006,0.05l0.007,0.05l0.007,0.05l0.008,0.05l0.008,0.049l0.01,0.049l0.009,0.049l0.011,0.049l0.011,0.049l0.011,0.048l0.012,0.048l0.013,0.048l0.013,0.048l0.014,0.047l0.014,0.048l0.015,0.047l0.016,0.046l0.016,0.047l0.015,0.043l0.036,0.094l0.037,0.091l0.039,0.089l0.042,0.089l0.043,0.087l0.045,0.086l0.048,0.084l0.049,0.084l0.051,0.082l0.054,0.081l0.055,0.079l0.057,0.079l0.059,0.076l0.06,0.076l0.063,0.073l0.064,0.073l0.065,0.07l0.068,0.069l0.069,0.068l0.071,0.066l0.072,0.064l0.074,0.062l0.075,0.061l0.077,0.059l0.078,0.057l0.079,0.055l0.081,0.053l0.082,0.051l0.084,0.05l0.085,0.047l0.086,0.045l0.087,0.044l0.088,0.041l0.089,0.039l0.091,0.037l0.094,0.036l0.044,0.016l0.046,0.016l0.047,0.015l0.047,0.015l0.047,0.014l0.047,0.014l0.048,0.014l0.048,0.012l0.048,0.012l0.048,0.012l0.049,0.011l0.049,0.01l0.049,0.01l0.049,0.009l0.05,0.008l0.049,0.008l0.05,0.008l0.05,0.006l0.051,0.006l0.05,0.006l0.051,0.005l0.051,0.004l0.051,0.003l0.051,0.003l0.052,0.003l0.052,0.001l0.052,0.001l0.055,0.001l15.196,0l0.055,-0.001l0.052,-0.001l0.052,-0.001l0.052,-0.003l0.051,-0.003l0.051,-0.003l0.051,-0.004l0.051,-0.005l0.05,-0.006l0.051,-0.006l0.05,-0.006l0.05,-0.008l0.049,-0.008l0.05,-0.008l0.049,-0.009l0.049,-0.01l0.049,-0.01l0.049,-0.011l0.048,-0.012l0.048,-0.012l0.048,-0.012l0.048,-0.014l0.047,-0.014l0.047,-0.014l0.047,-0.015l0.047,-0.015l0.046,-0.016l0.044,-0.016l0.094,-0.036l0.091,-0.037l0.089,-0.039l0.088,-0.041l0.088,-0.044l0.085,-0.045l0.085,-0.047l0.084,-0.05l0.082,-0.051l0.081,-0.053l0.079,-0.055l0.078,-0.057l0.077,-0.059l0.075,-0.061l0.074,-0.062l0.072,-0.064l0.071,-0.066l0.069,-0.068l0.068,-0.069l0.065,-0.07l0.064,-0.073l0.063,-0.073l0.06,-0.076l0.059,-0.076l0.057,-0.079l0.055,-0.079l0.054,-0.081l0.051,-0.082l0.049,-0.084l0.048,-0.084l0.045,-0.086l0.043,-0.087l0.042,-0.089l0.039,-0.089l0.037,-0.091l0.036,-0.094l0.015,-0.043l0.016,-0.047l0.016,-0.046l0.015,-0.047l0.014,-0.048l0.014,-0.047l0.013,-0.048l0.013,-0.048l0.012,-0.048l0.011,-0.048l0.011,-0.049l0.011,-0.049l0.009,-0.049l0.01,-0.049l0.008,-0.049l0.008,-0.05l0.007,-0.05l0.007,-0.05l0.006,-0.05l0.006,-0.051l0.004,-0.051l0.005,-0.051l0.003,-0.051l0.003,-0.051l0.002,-0.052l0.002,-0.051l0.001,-0.052l0,-0.055l0,-3.353l0,-0.055l-0.001,-0.052l-0.002,-0.052l-0.002,-0.052l-0.003,-0.051l-0.003,-0.051l-0.005,-0.051l-0.004,-0.051l-0.006,-0.05l-0.006,-0.051l-0.007,-0.05l-0.007,-0.05l-0.008,-0.049l-0.008,-0.05l-0.01,-0.049l-0.009,-0.049l-0.011,-0.049l-0.011,-0.049l-0.011,-0.048l-0.012,-0.048l-0.013,-0.048l-0.013,-0.048l-0.014,-0.047l-0.014,-0.047l-0.015,-0.047l-0.016,-0.047l-0.016,-0.046l-0.015,-0.044l-0.036,-0.094l-0.037,-0.091l-0.039,-0.089l-0.042,-0.088l-0.043,-0.087l-0.045,-0.086l-0.048,-0.085l-0.049,-0.084l-0.051,-0.082l-0.054,-0.081l-0.055,-0.079l-0.057,-0.078l-0.059,-0.077l-0.06,-0.075l-0.063,-0.074l-0.064,-0.072l-0.065,-0.071l-0.068,-0.069l-0.069,-0.067l-0.071,-0.066l-0.072,-0.064l-0.074,-0.063l-0.075,-0.06l-0.077,-0.059l-0.078,-0.057l-0.079,-0.055l-0.081,-0.054l-0.082,-0.051l-0.084,-0.049l-0.085,-0.048l-0.085,-0.045l-0.088,-0.043l-0.088,-0.042l-0.089,-0.039l-0.091,-0.037l-0.094,-0.036l-0.044,-0.015l-0.046,-0.016l-0.047,-0.016l-0.047,-0.015l-0.047,-0.014l-0.047,-0.014l-0.048,-0.013l-0.048,-0.013l-0.048,-0.012l-0.048,-0.011l-0.049,-0.011l-0.049,-0.011l-0.049,-0.009l-0.049,-0.009l-0.05,-0.009l-0.049,-0.008l-0.05,-0.007l-0.05,-0.007l-0.051,-0.006l-0.05,-0.005l-0.051,-0.005l-0.051,-0.005l-0.051,-0.003l-0.051,-0.003l-0.052,-0.002l-0.052,-0.002l-0.052,-0.001l-0.055,0l-15.196,0Z"/><path d="M48.155,17.658l0.085,0.003l0.084,0.006l0.083,0.007l0.084,0.01l0.082,0.012l0.082,0.014l0.081,0.015l0.08,0.018l0.08,0.02l0.079,0.022l0.078,0.023l0.077,0.026l0.077,0.027l0.075,0.029l0.075,0.031l0.074,0.033l0.072,0.034l0.072,0.037l0.071,0.038l0.07,0.039l0.069,0.041l0.067,0.043l0.067,0.045l0.065,0.046l0.065,0.048l0.063,0.049l0.062,0.05l0.06,0.052l0.06,0.054l0.058,0.055l0.057,0.056l0.055,0.058l0.054,0.059l0.053,0.06l0.051,0.062l0.05,0.062l0.048,0.064l0.047,0.066l0.046,0.066l0.044,0.068l0.042,0.068l0.041,0.07l0.039,0.071l0.037,0.072l0.036,0.073l0.034,0.074l0.032,0.075l0.031,0.075l0.028,0.077l0.027,0.078l0.025,0.078l0.024,0.079l0.021,0.08l0.019,0.081l0.018,0.082l0.015,0.082l0.014,0.083l0.012,0.084l0.009,0.084l0.008,0.085l0.005,0.085l0.003,0.087l0.001,0.086l-0.001,0.087l-0.003,0.086l-0.005,0.085l-0.008,0.085l-0.009,0.085l-0.012,0.083l-0.014,0.083l-0.015,0.083l-0.018,0.081l-0.019,0.081l-0.021,0.08l-0.024,0.079l-0.025,0.079l-0.027,0.077l-0.028,0.077l-0.031,0.076l-0.032,0.075l-0.034,0.074l-0.036,0.072l-0.037,0.072l-0.039,0.071l-0.041,0.07l-0.042,0.069l-0.044,0.067l-0.046,0.067l-0.047,0.065l-0.048,0.064l-0.05,0.063l-0.051,0.061l-0.053,0.061l-0.054,0.059l-0.055,0.057l-0.057,0.057l-0.058,0.055l-0.06,0.053l-0.06,0.052l-0.062,0.051l-0.063,0.049l-0.065,0.047l-0.065,0.046l-0.067,0.045l-0.067,0.043l-0.069,0.041l-0.07,0.04l-0.071,0.038l-0.072,0.036l-0.072,0.034l-0.074,0.033l-0.075,0.031l-0.075,0.029l-0.077,0.028l-0.077,0.025l-0.078,0.024l-0.079,0.022l-0.08,0.019l-0.08,0.018l-0.081,0.016l-0.082,0.014l-0.082,0.011l-0.084,0.01l-0.083,0.008l-0.084,0.005l-0.085,0.003l-0.086,0.001l-0.085,-0.001l-0.085,-0.003l-0.084,-0.005l-0.084,-0.008l-0.083,-0.01l-0.082,-0.011l-0.082,-0.014l-0.081,-0.016l-0.081,-0.018l-0.079,-0.019l-0.079,-0.022l-0.078,-0.024l-0.077,-0.025l-0.077,-0.028l-0.075,-0.029l-0.075,-0.031l-0.074,-0.033l-0.073,-0.034l-0.071,-0.036l-0.071,-0.038l-0.07,-0.04l-0.069,-0.041l-0.068,-0.043l-0.066,-0.045l-0.066,-0.046l-0.064,-0.047l-0.063,-0.049l-0.062,-0.051l-0.06,-0.052l-0.06,-0.053l-0.058,-0.055l-0.057,-0.057l-0.055,-0.057l-0.054,-0.059l-0.053,-0.061l-0.051,-0.061l-0.05,-0.063l-0.049,-0.064l-0.047,-0.065l-0.045,-0.067l-0.044,-0.067l-0.042,-0.069l-0.041,-0.07l-0.039,-0.071l-0.037,-0.072l-0.036,-0.072l-0.034,-0.074l-0.032,-0.075l-0.031,-0.076l-0.029,-0.077l-0.026,-0.077l-0.026,-0.079l-0.023,-0.079l-0.021,-0.08l-0.02,-0.081l-0.017,-0.081l-0.016,-0.083l-0.013,-0.083l-0.012,-0.083l-0.009,-0.085l-0.008,-0.085l-0.005,-0.085l-0.003,-0.086l-0.001,-0.087l0.001,-0.086l0.003,-0.087l0.005,-0.085l0.008,-0.085l0.009,-0.084l0.012,-0.084l0.013,-0.083l0.016,-0.082l0.017,-0.082l0.02,-0.081l0.021,-0.08l0.023,-0.079l0.026,-0.078l0.026,-0.078l0.029,-0.077l0.031,-0.075l0.032,-0.075l0.034,-0.074l0.036,-0.073l0.037,-0.072l0.039,-0.071l0.041,-0.07l0.042,-0.068l0.044,-0.068l0.045,-0.066l0.047,-0.066l0.049,-0.064l0.05,-0.062l0.051,-0.062l0.053,-0.06l0.054,-0.059l0.055,-0.058l0.057,-0.056l0.058,-0.055l0.06,-0.054l0.06,-0.052l0.062,-0.05l0.063,-0.049l0.064,-0.048l0.066,-0.046l0.066,-0.045l0.068,-0.043l0.069,-0.041l0.07,-0.039l0.071,-0.038l0.071,-0.037l0.073,-0.034l0.074,-0.033l0.075,-0.031l0.075,-0.029l0.077,-0.027l0.077,-0.026l0.078,-0.023l0.079,-0.022l0.079,-0.02l0.081,-0.018l0.081,-0.015l0.082,-0.014l0.082,-0.012l0.083,-0.01l0.084,-0.007l0.084,-0.006l0.085,-0.003l0.085,-0.001l0.086,0.001Zm-0.147,0.95l-0.06,0.002l-0.06,0.004l-0.059,0.005l-0.059,0.007l-0.058,0.009l-0.058,0.009l-0.058,0.011l-0.057,0.013l-0.056,0.014l-0.056,0.015l-0.055,0.017l-0.055,0.018l-0.054,0.019l-0.053,0.021l-0.053,0.022l-0.052,0.023l-0.052,0.025l-0.051,0.026l-0.05,0.026l-0.05,0.029l-0.049,0.029l-0.048,0.031l-0.048,0.031l-0.046,0.033l-0.046,0.034l-0.045,0.035l-0.045,0.037l-0.043,0.037l-0.043,0.038l-0.041,0.04l-0.041,0.04l-0.04,0.041l-0.039,0.043l-0.038,0.043l-0.036,0.044l-0.036,0.045l-0.035,0.046l-0.034,0.047l-0.032,0.048l-0.032,0.048l-0.03,0.05l-0.029,0.05l-0.028,0.051l-0.027,0.051l-0.026,0.053l-0.024,0.053l-0.023,0.053l-0.022,0.055l-0.021,0.055l-0.019,0.055l-0.018,0.057l-0.017,0.057l-0.015,0.057l-0.014,0.058l-0.013,0.059l-0.011,0.059l-0.01,0.06l-0.008,0.06l-0.007,0.061l-0.005,0.061l-0.004,0.062l-0.003,0.062l0,0.063l0,0.063l0.003,0.062l0.004,0.062l0.005,0.062l0.007,0.06l0.008,0.061l0.01,0.059l0.011,0.06l0.013,0.058l0.014,0.058l0.015,0.058l0.017,0.057l0.018,0.056l0.019,0.056l0.021,0.055l0.022,0.054l0.023,0.054l0.024,0.053l0.026,0.052l0.027,0.052l0.028,0.051l0.029,0.05l0.03,0.049l0.032,0.049l0.032,0.047l0.034,0.047l0.035,0.046l0.036,0.045l0.036,0.045l0.038,0.043l0.039,0.042l0.04,0.041l0.041,0.041l0.041,0.039l0.043,0.039l0.043,0.037l0.045,0.036l0.045,0.035l0.046,0.034l0.046,0.033l0.048,0.032l0.048,0.03l0.049,0.03l0.05,0.028l0.05,0.027l0.051,0.026l0.052,0.024l0.052,0.023l0.053,0.022l0.053,0.021l0.054,0.019l0.055,0.018l0.055,0.017l0.056,0.015l0.056,0.014l0.057,0.013l0.058,0.011l0.057,0.01l0.059,0.008l0.059,0.007l0.059,0.005l0.06,0.004l0.06,0.002l0.061,0.001l0.061,-0.001l0.061,-0.002l0.06,-0.004l0.059,-0.005l0.059,-0.007l0.058,-0.008l0.058,-0.01l0.057,-0.011l0.057,-0.013l0.057,-0.014l0.055,-0.015l0.056,-0.017l0.054,-0.018l0.054,-0.019l0.054,-0.021l0.053,-0.022l0.052,-0.023l0.052,-0.024l0.051,-0.026l0.05,-0.027l0.05,-0.028l0.049,-0.03l0.048,-0.03l0.047,-0.032l0.047,-0.033l0.046,-0.034l0.045,-0.035l0.044,-0.036l0.044,-0.037l0.042,-0.039l0.042,-0.039l0.041,-0.041l0.04,-0.041l0.038,-0.042l0.038,-0.044l0.037,-0.044l0.036,-0.045l0.035,-0.046l0.033,-0.047l0.033,-0.047l0.031,-0.049l0.031,-0.049l0.029,-0.05l0.028,-0.051l0.027,-0.052l0.026,-0.052l0.024,-0.053l0.023,-0.054l0.022,-0.054l0.021,-0.055l0.019,-0.056l0.018,-0.056l0.017,-0.057l0.015,-0.058l0.014,-0.058l0.013,-0.058l0.011,-0.06l0.01,-0.059l0.008,-0.061l0.007,-0.06l0.005,-0.062l0.004,-0.062l0.002,-0.062l0.001,-0.063l-0.001,-0.063l-0.002,-0.062l-0.004,-0.062l-0.005,-0.061l-0.007,-0.061l-0.008,-0.06l-0.01,-0.06l-0.011,-0.059l-0.013,-0.059l-0.014,-0.058l-0.015,-0.057l-0.017,-0.057l-0.018,-0.057l-0.019,-0.055l-0.021,-0.055l-0.022,-0.055l-0.023,-0.053l-0.024,-0.054l-0.026,-0.052l-0.027,-0.051l-0.028,-0.051l-0.029,-0.05l-0.031,-0.05l-0.031,-0.048l-0.033,-0.048l-0.033,-0.047l-0.035,-0.046l-0.036,-0.045l-0.037,-0.044l-0.038,-0.043l-0.038,-0.043l-0.04,-0.041l-0.041,-0.04l-0.042,-0.04l-0.042,-0.038l-0.044,-0.037l-0.044,-0.037l-0.045,-0.035l-0.046,-0.034l-0.047,-0.033l-0.047,-0.031l-0.048,-0.031l-0.049,-0.029l-0.05,-0.029l-0.05,-0.026l-0.051,-0.026l-0.052,-0.025l-0.052,-0.023l-0.053,-0.022l-0.054,-0.021l-0.054,-0.019l-0.054,-0.018l-0.056,-0.017l-0.055,-0.015l-0.057,-0.014l-0.057,-0.013l-0.057,-0.011l-0.058,-0.009l-0.058,-0.009l-0.059,-0.007l-0.059,-0.005l-0.06,-0.004l-0.061,-0.002l-0.061,-0.001l-0.061,0.001Z"/><path d="M36.792,17.658l0.036,0.002l0.035,0.003l0.036,0.005l0.035,0.005l0.035,0.008l0.034,0.008l0.035,0.01l0.034,0.01l0.033,0.012l0.034,0.013l0.033,0.015l0.033,0.015l0.032,0.017l0.032,0.018l0.032,0.018l0.031,0.02l0.031,0.021l0.03,0.022l0.03,0.023l0.029,0.025l0.03,0.025l0.028,0.026l0.028,0.027l0.028,0.028l0.027,0.029l0.027,0.03l0.026,0.03l0.026,0.032l0.025,0.032l0.025,0.034l0.024,0.034l0.023,0.035l0.023,0.036l0.022,0.037l0.022,0.037l0.021,0.038l0.021,0.039l0.019,0.04l0.02,0.04l0.018,0.041l0.018,0.042l0.017,0.042l0.017,0.043l0.016,0.044l0.015,0.044l0.014,0.045l0.014,0.046l0.013,0.046l0.012,0.046l0.011,0.047l0.011,0.048l0.01,0.048l0.009,0.049l0.008,0.049l0.007,0.05l0.007,0.05l0.006,0.05l0.005,0.051l0.004,0.051l0.003,0.052l0.002,0.052l0.001,0.052l0.001,0.053l0.056,0l0.055,0.001l0.056,0.003l0.055,0.003l0.054,0.003l0.054,0.005l0.054,0.005l0.053,0.006l0.053,0.007l0.052,0.008l0.051,0.009l0.052,0.009l0.05,0.01l0.05,0.011l0.05,0.011l0.049,0.012l0.048,0.013l0.048,0.014l0.047,0.014l0.046,0.015l0.046,0.015l0.045,0.017l0.045,0.016l0.043,0.018l0.043,0.018l0.042,0.019l0.042,0.019l0.04,0.02l0.04,0.02l0.039,0.021l0.038,0.022l0.037,0.022l0.037,0.022l0.035,0.024l0.035,0.023l0.033,0.024l0.033,0.025l0.032,0.025l0.03,0.026l0.03,0.026l0.029,0.026l0.028,0.027l0.026,0.028l0.026,0.027l0.024,0.029l0.024,0.028l0.022,0.029l0.021,0.03l0.02,0.029l0.019,0.03l0.018,0.031l0.016,0.031l0.016,0.031l0.014,0.031l0.012,0.032l0.012,0.032l0.01,0.032l0.009,0.033l0.007,0.032l0.007,0.034l0.005,0.033l0.003,0.033l0.002,0.034l0.001,0.034l-0.001,0.034l-0.002,0.034l-0.003,0.033l-0.005,0.034l-0.007,0.033l-0.007,0.033l-0.009,0.032l-0.01,0.033l-0.012,0.032l-0.012,0.031l-0.014,0.032l-0.016,0.031l-0.016,0.031l-0.018,0.03l-0.019,0.03l-0.02,0.03l-0.021,0.029l-0.022,0.029l-0.024,0.029l-0.024,0.028l-0.026,0.028l-0.026,0.027l-0.028,0.027l-0.029,0.027l-0.03,0.026l-0.03,0.025l-0.032,0.025l-0.033,0.025l-0.033,0.024l-0.035,0.024l-0.035,0.023l-0.037,0.023l-0.037,0.022l-0.038,0.021l-0.039,0.021l-0.04,0.021l-0.04,0.019l-0.042,0.02l-0.042,0.018l-0.043,0.019l-0.043,0.017l-0.045,0.017l-0.045,0.016l-0.046,0.016l-0.046,0.014l-0.047,0.015l-0.048,0.013l-0.048,0.013l-0.049,0.012l-0.05,0.012l-0.05,0.01l-0.05,0.01l-0.052,0.01l-0.051,0.008l-0.052,0.008l-0.053,0.007l-0.053,0.006l-0.054,0.005l-0.054,0.005l-0.054,0.004l-0.055,0.003l-0.056,0.002l-0.055,0.001l-0.056,0.001l-0.001,0.052l-0.001,0.053l-0.002,0.052l-0.003,0.051l-0.004,0.051l-0.005,0.051l-0.006,0.051l-0.007,0.05l-0.007,0.049l-0.008,0.049l-0.009,0.049l-0.01,0.048l-0.011,0.048l-0.011,0.047l-0.012,0.047l-0.013,0.046l-0.014,0.045l-0.014,0.045l-0.015,0.044l-0.016,0.044l-0.017,0.043l-0.017,0.042l-0.018,0.042l-0.018,0.041l-0.02,0.041l-0.019,0.039l-0.021,0.039l-0.021,0.038l-0.022,0.038l-0.022,0.036l-0.023,0.036l-0.023,0.035l-0.024,0.035l-0.025,0.033l-0.025,0.032l-0.026,0.032l-0.026,0.031l-0.027,0.03l-0.027,0.029l-0.028,0.028l-0.028,0.027l-0.028,0.026l-0.03,0.025l-0.029,0.024l-0.03,0.023l-0.03,0.022l-0.031,0.021l-0.031,0.02l-0.032,0.019l-0.032,0.017l-0.032,0.017l-0.033,0.016l-0.033,0.014l-0.034,0.013l-0.033,0.012l-0.034,0.011l-0.035,0.009l-0.034,0.009l-0.035,0.007l-0.035,0.006l-0.036,0.004l-0.035,0.004l-0.036,0.002l-0.036,0l-0.036,0l-0.036,-0.002l-0.036,-0.004l-0.035,-0.004l-0.036,-0.006l-0.034,-0.007l-0.035,-0.009l-0.034,-0.009l-0.034,-0.011l-0.034,-0.012l-0.033,-0.013l-0.034,-0.014l-0.032,-0.016l-0.033,-0.017l-0.032,-0.017l-0.031,-0.019l-0.031,-0.02l-0.031,-0.021l-0.031,-0.022l-0.03,-0.023l-0.029,-0.024l-0.029,-0.025l-0.029,-0.026l-0.028,-0.027l-0.028,-0.028l-0.027,-0.029l-0.027,-0.03l-0.026,-0.031l-0.025,-0.032l-0.026,-0.032l-0.024,-0.033l-0.024,-0.035l-0.024,-0.035l-0.023,-0.036l-0.022,-0.036l-0.022,-0.038l-0.021,-0.038l-0.02,-0.039l-0.02,-0.039l-0.019,-0.041l-0.019,-0.041l-0.018,-0.042l-0.017,-0.042l-0.016,-0.043l-0.016,-0.044l-0.015,-0.044l-0.015,-0.045l-0.013,-0.045l-0.013,-0.046l-0.013,-0.047l-0.011,-0.047l-0.011,-0.048l-0.009,-0.048l-0.009,-0.049l-0.009,-0.049l-0.007,-0.049l-0.007,-0.05l-0.005,-0.051l-0.005,-0.051l-0.004,-0.051l-0.003,-0.051l-0.003,-0.052l-0.001,-0.053l-0.001,-0.052l-0.055,-0.001l-0.056,-0.001l-0.055,-0.002l-0.055,-0.003l-0.055,-0.004l-0.054,-0.005l-0.053,-0.005l-0.053,-0.006l-0.053,-0.007l-0.052,-0.008l-0.052,-0.008l-0.051,-0.01l-0.051,-0.01l-0.05,-0.01l-0.049,-0.012l-0.049,-0.012l-0.049,-0.013l-0.048,-0.013l-0.047,-0.015l-0.046,-0.014l-0.046,-0.016l-0.045,-0.016l-0.044,-0.017l-0.044,-0.017l-0.043,-0.019l-0.042,-0.018l-0.041,-0.02l-0.041,-0.019l-0.04,-0.021l-0.039,-0.021l-0.038,-0.021l-0.037,-0.022l-0.036,-0.023l-0.036,-0.023l-0.034,-0.024l-0.034,-0.024l-0.033,-0.025l-0.031,-0.025l-0.031,-0.025l-0.03,-0.026l-0.029,-0.027l-0.027,-0.027l-0.027,-0.027l-0.026,-0.028l-0.024,-0.028l-0.023,-0.029l-0.023,-0.029l-0.021,-0.029l-0.02,-0.03l-0.019,-0.03l-0.017,-0.03l-0.017,-0.031l-0.015,-0.031l-0.014,-0.032l-0.013,-0.031l-0.011,-0.032l-0.011,-0.033l-0.008,-0.032l-0.008,-0.033l-0.006,-0.033l-0.005,-0.034l-0.004,-0.033l-0.002,-0.034l0,-0.034l0,-0.034l0.002,-0.034l0.004,-0.033l0.005,-0.033l0.006,-0.034l0.008,-0.032l0.008,-0.033l0.011,-0.032l0.011,-0.032l0.013,-0.032l0.014,-0.031l0.015,-0.031l0.017,-0.031l0.017,-0.031l0.019,-0.03l0.02,-0.029l0.021,-0.03l0.023,-0.029l0.023,-0.028l0.024,-0.029l0.026,-0.027l0.027,-0.028l0.027,-0.027l0.029,-0.026l0.03,-0.026l0.031,-0.026l0.031,-0.025l0.033,-0.025l0.034,-0.024l0.034,-0.023l0.036,-0.024l0.036,-0.022l0.037,-0.022l0.038,-0.022l0.039,-0.021l0.04,-0.02l0.041,-0.02l0.041,-0.019l0.042,-0.019l0.043,-0.018l0.044,-0.018l0.044,-0.016l0.045,-0.017l0.046,-0.015l0.046,-0.015l0.047,-0.014l0.048,-0.014l0.049,-0.013l0.049,-0.012l0.049,-0.011l0.05,-0.011l0.051,-0.01l0.051,-0.009l0.052,-0.009l0.052,-0.008l0.053,-0.007l0.053,-0.006l0.053,-0.005l0.054,-0.005l0.055,-0.003l0.055,-0.003l0.055,-0.003l0.056,-0.001l0.055,0l0.001,-0.053l0.001,-0.052l0.003,-0.052l0.003,-0.052l0.004,-0.051l0.005,-0.051l0.005,-0.05l0.007,-0.05l0.007,-0.05l0.009,-0.049l0.009,-0.049l0.009,-0.048l0.011,-0.048l0.011,-0.047l0.013,-0.046l0.013,-0.046l0.013,-0.046l0.015,-0.045l0.015,-0.044l0.016,-0.044l0.016,-0.043l0.017,-0.042l0.018,-0.042l0.019,-0.041l0.019,-0.04l0.02,-0.04l0.02,-0.039l0.021,-0.038l0.022,-0.037l0.022,-0.037l0.023,-0.036l0.024,-0.035l0.024,-0.034l0.024,-0.034l0.026,-0.032l0.025,-0.032l0.026,-0.03l0.027,-0.03l0.027,-0.029l0.028,-0.028l0.028,-0.027l0.029,-0.026l0.029,-0.025l0.029,-0.025l0.03,-0.023l0.031,-0.022l0.031,-0.021l0.031,-0.02l0.031,-0.018l0.032,-0.018l0.033,-0.017l0.032,-0.015l0.034,-0.015l0.033,-0.013l0.034,-0.012l0.034,-0.01l0.034,-0.01l0.035,-0.008l0.034,-0.008l0.036,-0.005l0.035,-0.005l0.036,-0.003l0.036,-0.002l0.036,-0.001l0.036,0.001Zm-0.037,0.949l-0.001,0l-0.001,0l-0.001,0l-0.001,0.001l-0.002,0l-0.001,0l-0.003,0.001l-0.002,0.001l-0.003,0.001l-0.004,0.001l-0.004,0.002l-0.005,0.002l-0.005,0.003l-0.006,0.003l-0.006,0.004l-0.007,0.005l-0.008,0.005l-0.008,0.006l-0.009,0.006l-0.009,0.008l-0.009,0.008l-0.01,0.009l-0.01,0.01l-0.011,0.01l-0.011,0.012l-0.011,0.012l-0.011,0.014l-0.012,0.014l-0.011,0.015l-0.012,0.016l-0.012,0.017l-0.012,0.017l-0.012,0.019l-0.011,0.019l-0.012,0.02l-0.012,0.021l-0.011,0.022l-0.011,0.022l-0.011,0.024l-0.011,0.024l-0.011,0.025l-0.01,0.025l-0.01,0.026l-0.01,0.027l-0.009,0.028l-0.009,0.028l-0.009,0.029l-0.008,0.029l-0.008,0.03l-0.008,0.031l-0.006,0.031l-0.007,0.031l-0.006,0.032l-0.005,0.033l-0.005,0.033l-0.005,0.033l-0.004,0.034l-0.003,0.035l-0.003,0.034l-0.002,0.035l-0.001,0.036l-0.001,0.036l-0.001,0.044l-0.001,0.051l-0.005,0.051l-0.007,0.05l-0.01,0.05l-0.013,0.049l-0.015,0.049l-0.018,0.048l-0.02,0.046l-0.023,0.046l-0.025,0.044l-0.028,0.043l-0.029,0.041l-0.032,0.04l-0.034,0.038l-0.036,0.036l-0.038,0.034l-0.04,0.031l-0.041,0.03l-0.043,0.028l-0.044,0.025l-0.046,0.023l-0.047,0.02l-0.047,0.018l-0.049,0.015l-0.049,0.012l-0.05,0.01l-0.051,0.007l-0.05,0.005l-0.051,0.002l-0.049,0l-0.041,0.001l-0.04,0.002l-0.041,0.002l-0.039,0.003l-0.04,0.003l-0.039,0.004l-0.038,0.004l-0.038,0.005l-0.037,0.006l-0.037,0.006l-0.037,0.006l-0.035,0.008l-0.036,0.007l-0.034,0.008l-0.034,0.008l-0.033,0.009l-0.032,0.009l-0.032,0.01l-0.031,0.01l-0.03,0.01l-0.03,0.011l-0.028,0.011l-0.028,0.011l-0.027,0.011l-0.026,0.012l-0.025,0.011l-0.024,0.012l-0.023,0.012l-0.022,0.012l-0.021,0.012l-0.021,0.012l-0.019,0.012l-0.018,0.011l-0.017,0.012l-0.016,0.012l-0.015,0.011l-0.013,0.011l-0.013,0.01l-0.012,0.01l-0.01,0.01l-0.01,0.009l-0.008,0.009l-0.002,0.002l0.002,0.002l0.008,0.009l0.01,0.009l0.01,0.01l0.012,0.01l0.013,0.011l0.013,0.011l0.015,0.011l0.016,0.011l0.017,0.012l0.018,0.012l0.019,0.012l0.021,0.012l0.021,0.012l0.022,0.011l0.023,0.012l0.024,0.012l0.025,0.012l0.026,0.011l0.027,0.012l0.028,0.011l0.028,0.011l0.03,0.01l0.03,0.01l0.031,0.01l0.032,0.01l0.032,0.009l0.033,0.009l0.034,0.008l0.034,0.008l0.036,0.008l0.035,0.007l0.037,0.006l0.037,0.007l0.037,0.005l0.038,0.005l0.038,0.005l0.039,0.003l0.04,0.004l0.039,0.003l0.041,0.002l0.04,0.001l0.041,0.001l0.049,0.001l0.051,0.001l0.05,0.005l0.051,0.007l0.05,0.01l0.049,0.013l0.049,0.015l0.047,0.017l0.047,0.021l0.046,0.023l0.044,0.025l0.043,0.027l0.041,0.03l0.04,0.032l0.038,0.034l0.036,0.036l0.034,0.038l0.032,0.039l0.029,0.042l0.028,0.042l0.025,0.045l0.023,0.045l0.02,0.047l0.018,0.048l0.015,0.048l0.013,0.049l0.01,0.05l0.007,0.051l0.005,0.051l0.001,0.05l0.001,0.045l0.001,0.036l0.001,0.035l0.002,0.035l0.003,0.035l0.003,0.034l0.004,0.034l0.005,0.033l0.005,0.034l0.005,0.032l0.006,0.032l0.007,0.032l0.006,0.031l0.008,0.03l0.008,0.03l0.008,0.03l0.009,0.028l0.009,0.029l0.009,0.027l0.01,0.027l0.01,0.026l0.01,0.026l0.011,0.024l0.011,0.025l0.011,0.023l0.011,0.022l0.011,0.022l0.012,0.021l0.012,0.02l0.011,0.02l0.012,0.018l0.012,0.018l0.012,0.017l0.012,0.015l0.011,0.016l0.012,0.014l0.011,0.013l0.011,0.012l0.011,0.012l0.011,0.011l0.01,0.01l0.01,0.009l0.009,0.008l0.009,0.007l0.009,0.007l0.008,0.006l0.008,0.005l0.007,0.004l0.006,0.004l0.006,0.003l0.005,0.003l0.005,0.002l0.008,0.003l0.005,0.002l0.007,0.002l0.004,0l0.001,0l0.001,0l0.001,0l0,0l0.002,0l0.001,-0.001l0.002,0l0.002,-0.001l0.003,0l0.003,-0.002l0.003,-0.001l0.004,-0.002l0.005,-0.002l0.005,-0.003l0.006,-0.003l0.007,-0.004l0.007,-0.004l0.007,-0.005l0.008,-0.006l0.009,-0.007l0.009,-0.007l0.01,-0.008l0.009,-0.009l0.011,-0.01l0.01,-0.011l0.011,-0.012l0.011,-0.012l0.012,-0.013l0.011,-0.014l0.012,-0.016l0.011,-0.015l0.012,-0.017l0.012,-0.018l0.012,-0.018l0.012,-0.02l0.011,-0.02l0.012,-0.021l0.011,-0.022l0.012,-0.022l0.011,-0.023l0.011,-0.025l0.01,-0.024l0.011,-0.026l0.01,-0.026l0.009,-0.027l0.01,-0.027l0.009,-0.029l0.008,-0.028l0.009,-0.03l0.008,-0.03l0.007,-0.03l0.007,-0.031l0.006,-0.032l0.006,-0.032l0.006,-0.033l0.005,-0.033l0.004,-0.033l0.004,-0.034l0.003,-0.034l0.003,-0.035l0.002,-0.035l0.002,-0.035l0.001,-0.036l0,-0.045l0.002,-0.05l0.004,-0.051l0.008,-0.051l0.009,-0.05l0.013,-0.049l0.015,-0.048l0.018,-0.048l0.02,-0.047l0.023,-0.045l0.025,-0.045l0.028,-0.042l0.03,-0.042l0.032,-0.039l0.034,-0.038l0.036,-0.036l0.038,-0.034l0.039,-0.032l0.042,-0.03l0.042,-0.027l0.045,-0.025l0.045,-0.023l0.047,-0.021l0.048,-0.017l0.048,-0.015l0.05,-0.013l0.05,-0.01l0.05,-0.007l0.051,-0.005l0.051,-0.001l0.048,-0.001l0.041,-0.001l0.041,-0.001l0.04,-0.002l0.04,-0.003l0.039,-0.004l0.039,-0.003l0.039,-0.005l0.037,-0.005l0.038,-0.005l0.037,-0.007l0.036,-0.006l0.036,-0.007l0.035,-0.008l0.034,-0.008l0.034,-0.008l0.033,-0.009l0.033,-0.009l0.032,-0.01l0.031,-0.01l0.03,-0.01l0.029,-0.01l0.029,-0.011l0.027,-0.011l0.027,-0.012l0.026,-0.011l0.025,-0.012l0.024,-0.012l0.024,-0.012l0.022,-0.011l0.021,-0.012l0.02,-0.012l0.019,-0.012l0.018,-0.012l0.017,-0.012l0.016,-0.011l0.015,-0.011l0.014,-0.011l0.012,-0.011l0.012,-0.01l0.011,-0.01l0.009,-0.009l0.008,-0.009l0.003,-0.002l-0.003,-0.002l-0.008,-0.009l-0.009,-0.009l-0.011,-0.01l-0.012,-0.01l-0.012,-0.01l-0.014,-0.011l-0.015,-0.011l-0.016,-0.012l-0.017,-0.012l-0.018,-0.011l-0.019,-0.012l-0.02,-0.012l-0.021,-0.012l-0.022,-0.012l-0.024,-0.012l-0.024,-0.012l-0.025,-0.011l-0.026,-0.012l-0.027,-0.011l-0.027,-0.011l-0.029,-0.011l-0.029,-0.011l-0.03,-0.01l-0.031,-0.01l-0.032,-0.01l-0.033,-0.009l-0.033,-0.009l-0.034,-0.008l-0.034,-0.008l-0.035,-0.007l-0.036,-0.008l-0.036,-0.006l-0.037,-0.006l-0.038,-0.006l-0.037,-0.005l-0.039,-0.004l-0.039,-0.004l-0.039,-0.003l-0.04,-0.003l-0.04,-0.002l-0.041,-0.002l-0.041,-0.001l-0.048,0l-0.051,-0.002l-0.051,-0.005l-0.05,-0.007l-0.05,-0.01l-0.05,-0.012l-0.048,-0.015l-0.048,-0.018l-0.047,-0.02l-0.045,-0.023l-0.044,-0.025l-0.043,-0.028l-0.042,-0.03l-0.039,-0.031l-0.038,-0.034l-0.036,-0.036l-0.034,-0.038l-0.032,-0.04l-0.03,-0.041l-0.028,-0.043l-0.025,-0.044l-0.023,-0.046l-0.02,-0.046l-0.018,-0.048l-0.015,-0.049l-0.013,-0.049l-0.009,-0.05l-0.008,-0.05l-0.004,-0.051l-0.002,-0.051l0,-0.044l-0.001,-0.036l-0.002,-0.036l-0.002,-0.035l-0.003,-0.034l-0.003,-0.035l-0.004,-0.034l-0.004,-0.033l-0.005,-0.033l-0.006,-0.033l-0.006,-0.032l-0.006,-0.031l-0.007,-0.031l-0.007,-0.031l-0.008,-0.03l-0.009,-0.029l-0.008,-0.029l-0.009,-0.028l-0.01,-0.028l-0.009,-0.027l-0.01,-0.026l-0.011,-0.025l-0.01,-0.025l-0.011,-0.024l-0.011,-0.024l-0.012,-0.022l-0.011,-0.022l-0.012,-0.021l-0.011,-0.02l-0.012,-0.019l-0.012,-0.019l-0.012,-0.017l-0.012,-0.017l-0.011,-0.016l-0.012,-0.015l-0.011,-0.014l-0.012,-0.014l-0.011,-0.012l-0.011,-0.012l-0.01,-0.01l-0.011,-0.01l-0.009,-0.009l-0.01,-0.008l-0.009,-0.008l-0.009,-0.006l-0.008,-0.006l-0.007,-0.005l-0.007,-0.005l-0.007,-0.004l-0.006,-0.003l-0.005,-0.003l-0.005,-0.002l-0.004,-0.002l-0.003,-0.001l-0.003,-0.001l-0.003,-0.001l-0.002,-0.001l-0.002,0l-0.001,0l-0.002,-0.001l0,0l-0.001,0l-0.001,0l-0.001,0l-0.001,0Z"/><path d="M41.587,14.706c0,0 -0.505,-1.534 0.036,-1.762c0.722,-0.304 3.595,0.311 4.296,-0.059c0.638,-0.338 0.597,-1.952 -0.093,-2.165c-1.168,-0.361 -5.779,0.315 -6.913,0c-0.61,-0.17 -0.466,-1.625 0.106,-1.896c0.764,-0.362 3.713,0.084 4.477,-0.275c0.568,-0.267 -0.417,-1.69 -0.381,-2.317" style="fill:none;stroke:#000;stroke-width:1px;"/><path d="M6.854,6.267l0,0.401l-6.854,0l0,-0.401l2.067,0c-0.49,-0.291 -0.877,-0.689 -1.159,-1.192c-0.282,-0.502 -0.424,-1.071 -0.424,-1.704c0,-0.956 0.331,-1.757 0.992,-2.402c0.661,-0.646 1.496,-0.969 2.505,-0.969c1.009,0 1.852,0.373 2.529,1.118l-0.699,0.763c-0.31,-0.298 -0.604,-0.506 -0.88,-0.624c-0.276,-0.118 -0.601,-0.177 -0.973,-0.177c-0.658,0 -1.211,0.213 -1.658,0.638c-0.447,0.425 -0.67,0.969 -0.67,1.63c0,0.661 0.222,1.214 0.666,1.658c0.443,0.444 0.97,0.665 1.578,0.665c0.379,0 0.705,-0.063 0.978,-0.19c0.273,-0.128 0.559,-0.331 0.857,-0.61l0.707,0.726c-0.273,0.298 -0.533,0.521 -0.782,0.67l1.22,0Z" style="fill-rule:nonzero;"/><path d="M14.677,6.267l0,0.401l-7.823,0l0,-0.401l2.133,0c-0.509,-0.291 -0.911,-0.692 -1.206,-1.201c-0.295,-0.509 -0.443,-1.077 -0.443,-1.704c0,-0.956 0.329,-1.756 0.988,-2.398c0.658,-0.643 1.471,-0.964 2.44,-0.964c0.968,0 1.781,0.321 2.439,0.964c0.659,0.642 0.988,1.442 0.988,2.398c0,0.621 -0.148,1.189 -0.443,1.704c-0.295,0.515 -0.697,0.916 -1.206,1.201l2.133,0Zm-2.282,-4.572c-0.441,-0.46 -0.984,-0.689 -1.629,-0.689c-0.646,0 -1.191,0.229 -1.635,0.689c-0.444,0.459 -0.666,1.017 -0.666,1.672c0,0.655 0.222,1.212 0.666,1.671c0.444,0.46 0.989,0.689 1.635,0.689c0.645,0 1.19,-0.229 1.634,-0.689c0.444,-0.459 0.666,-1.016 0.666,-1.671c0,-0.655 -0.224,-1.213 -0.671,-1.672Z" style="fill-rule:nonzero;"/><path d="M23.831,6.267l0,0.401l-2.002,0l0,-5.085l-2.272,4.517l-0.615,0l-2.263,-4.517l0,5.085l-2.002,0l0,-0.401l0.903,0l0,-6.109l1.714,0l1.965,4.089l1.965,-4.089l1.704,0l0,6.109l0.903,0Z" style="fill-rule:nonzero;"/><path d="M30.201,6.267l0,0.401l-6.37,0l0,-0.401l0.904,0l0,-6.109l2.235,0c0.987,0 1.707,0.19 2.16,0.568c0.453,0.379 0.68,0.963 0.68,1.751c0,0.789 -0.231,1.366 -0.694,1.732c-0.462,0.367 -1.172,0.55 -2.128,0.55l-1.154,0l0,1.508l4.367,0Zm-3.092,-2.505c0.609,0 1.023,-0.116 1.244,-0.349c0.22,-0.233 0.33,-0.574 0.33,-1.024c0,-0.45 -0.139,-0.769 -0.419,-0.955c-0.279,-0.186 -0.717,-0.279 -1.313,-0.279l-1.117,0l0,2.607l1.275,0Z" style="fill-rule:nonzero;"/><path d="M37.214,6.267l0,0.401l-2.012,0l-1.555,-2.189l-1.444,0l0,2.189l-2.002,0l0,-0.401l0.904,0l0,-6.109l2.421,0c0.993,0 1.704,0.168 2.132,0.503c0.429,0.335 0.643,0.872 0.643,1.611c0,1.074 -0.469,1.751 -1.406,2.03l1.415,1.965l0.904,0Zm-3.642,-2.784c0.621,0 1.043,-0.096 1.267,-0.289c0.223,-0.192 0.335,-0.501 0.335,-0.926c0,-0.426 -0.115,-0.717 -0.344,-0.876c-0.23,-0.158 -0.64,-0.237 -1.23,-0.237l-1.397,0l0,2.328l1.369,0Z" style="fill-rule:nonzero;"/><path d="M44.794,6.267l0,0.401l-2.076,0l-0.652,-1.481l-3.26,0l-0.652,1.481l-2.076,0l0,-0.401l1.08,0l2.691,-6.109l1.174,0l2.691,6.109l1.08,0Zm-3.175,-2.095l-1.183,-2.682l-1.183,2.682l2.366,0Z" style="fill-rule:nonzero;"/><path d="M49.022,6.267l0,0.401l-5.131,0l0,-0.401l1.024,0c-0.273,-0.124 -0.518,-0.301 -0.735,-0.53l0.624,-0.866c0.422,0.403 0.835,0.605 1.238,0.605c0.286,0 0.529,-0.096 0.731,-0.289c0.202,-0.192 0.303,-0.481 0.303,-0.866l0,-3.176l-2.068,0l0,-0.987l3.167,0l0,4.107c0,0.969 -0.32,1.636 -0.959,2.002l1.806,0Z" style="fill-rule:nonzero;"/><path d="M56.174,6.267l0,0.401l-7.152,0l0,-0.401l1.928,0c-0.739,-0.515 -1.108,-1.331 -1.108,-2.449l0,-3.66l1.099,0l0,3.614c0,0.596 0.149,1.068 0.447,1.415c0.298,0.348 0.701,0.522 1.21,0.522c0.509,0 0.913,-0.174 1.211,-0.522c0.298,-0.347 0.447,-0.819 0.447,-1.415l0,-3.614l1.099,0l0,3.66c0,1.124 -0.373,1.94 -1.118,2.449l1.937,0Z" style="fill-rule:nonzero;"/><path d="M57.078,6.267l0,-6.109l4.572,0l0,1.034l-3.473,0l0,1.723l3.119,0l0,0.978l-3.119,0l0,1.741l3.585,0l0,0.633l0.903,0l0,0.401l-6.491,0l0,-0.401l0.904,0Z" style="fill-rule:nonzero;"/><path d="M69.315,6.267l0,0.401l-7.05,0l0,-0.401l2.254,0c-0.541,-0.273 -0.97,-0.673 -1.29,-1.201c-0.32,-0.528 -0.48,-1.124 -0.48,-1.788c0,-0.95 0.329,-1.734 0.987,-2.351c0.658,-0.618 1.458,-0.927 2.398,-0.927c0.941,0 1.722,0.273 2.343,0.82l-0.587,0.838c-0.255,-0.218 -0.511,-0.368 -0.768,-0.452c-0.258,-0.084 -0.558,-0.126 -0.899,-0.126c-0.664,0 -1.219,0.199 -1.662,0.596c-0.444,0.398 -0.666,0.941 -0.666,1.63c0,0.689 0.217,1.243 0.652,1.662c0.434,0.419 0.96,0.629 1.578,0.629c0.618,0 1.135,-0.134 1.551,-0.4l0,-1.789l1.099,0l0,2.226c-0.23,0.255 -0.51,0.466 -0.839,0.633l1.379,0Z" style="fill-rule:nonzero;"/><path d="M77.137,6.267l0,0.401l-7.822,0l0,-0.401l2.132,0c-0.509,-0.291 -0.911,-0.692 -1.206,-1.201c-0.295,-0.509 -0.442,-1.077 -0.442,-1.704c0,-0.956 0.329,-1.756 0.987,-2.398c0.658,-0.643 1.471,-0.964 2.44,-0.964c0.969,0 1.782,0.321 2.44,0.964c0.658,0.642 0.987,1.442 0.987,2.398c0,0.621 -0.147,1.189 -0.442,1.704c-0.295,0.515 -0.697,0.916 -1.206,1.201l2.132,0Zm-2.281,-4.572c-0.441,-0.46 -0.984,-0.689 -1.63,-0.689c-0.646,0 -1.19,0.229 -1.634,0.689c-0.444,0.459 -0.666,1.017 -0.666,1.672c0,0.655 0.222,1.212 0.666,1.671c0.444,0.46 0.988,0.689 1.634,0.689c0.646,0 1.191,-0.229 1.634,-0.689c0.444,-0.459 0.666,-1.016 0.666,-1.671c0,-0.655 -0.223,-1.213 -0.67,-1.672Z" style="fill-rule:nonzero;"/><path d="M83.004,6.267l0,0.401l-5.867,0l0,-0.401l1.192,0c-0.298,-0.155 -0.571,-0.347 -0.819,-0.577l0.689,-0.829c0.658,0.571 1.341,0.857 2.049,0.857c0.354,0 0.635,-0.076 0.843,-0.228c0.208,-0.152 0.312,-0.354 0.312,-0.605c0,-0.252 -0.098,-0.447 -0.294,-0.587c-0.195,-0.14 -0.532,-0.267 -1.01,-0.382c-0.478,-0.115 -0.841,-0.22 -1.09,-0.317c-0.248,-0.096 -0.469,-0.222 -0.661,-0.377c-0.385,-0.292 -0.577,-0.739 -0.577,-1.341c0,-0.602 0.218,-1.066 0.656,-1.392c0.438,-0.326 0.98,-0.489 1.625,-0.489c0.416,0 0.829,0.068 1.239,0.205c0.41,0.136 0.763,0.329 1.062,0.577l-0.587,0.829c-0.193,-0.174 -0.453,-0.317 -0.782,-0.428c-0.33,-0.112 -0.654,-0.168 -0.974,-0.168c-0.319,0 -0.582,0.065 -0.787,0.196c-0.204,0.13 -0.307,0.327 -0.307,0.591c0,0.264 0.103,0.466 0.307,0.605c0.205,0.14 0.641,0.291 1.309,0.452c0.667,0.161 1.17,0.388 1.509,0.68c0.338,0.292 0.507,0.701 0.507,1.229c0,0.64 -0.236,1.139 -0.708,1.499l1.164,0Z" style="fill-rule:nonzero;"/></svg>