<?xml version="1.0" encoding="UTF-8" standalone="no"?><!DOCTYPE svg PUBLIC "-//W3C//DTD SVG 1.1//EN" "http://www.w3.org/Graphics/SVG/1.1/DTD/svg11.dtd"><svg width="100%" height="100%" viewBox="0 0 89 62" version="1.1" xmlns="http://www.w3.org/2000/svg" xmlns:xlink="http://www.w3.org/1999/xlink" xml:space="preserve" xmlns:serif="http://www.serif.com/" style="fill-rule:evenodd;clip-rule:evenodd;stroke-linecap:round;stroke-linejoin:round;stroke-miterlimit:1.5;"><g><path d="M21.847,59.586l45.545,0l-13.017,0l-2.161,-3.155l-2.743,-4.005" style="fill:none;stroke:#000;stroke-width:4px;"/><path d="M34.995,59.586l4.145,-7.16" style="fill:none;stroke:#000;stroke-width:4px;"/><path d="M85.169,0.001l0.101,0.004l0.1,0.006l0.099,0.009l0.099,0.012l0.098,0.013l0.097,0.016l0.096,0.019l0.096,0.021l0.094,0.023l0.094,0.025l0.093,0.028l0.091,0.03l0.091,0.032l0.09,0.034l0.089,0.036l0.087,0.038l0.087,0.041l0.085,0.042l0.084,0.045l0.083,0.046l0.082,0.048l0.08,0.051l0.079,0.052l0.078,0.054l0.076,0.055l0.075,0.058l0.074,0.059l0.072,0.061l0.071,0.063l0.069,0.064l0.067,0.066l0.066,0.067l0.064,0.069l0.063,0.071l0.061,0.072l0.059,0.073l0.058,0.075l0.055,0.077l0.054,0.077l0.052,0.08l0.05,0.08l0.049,0.082l0.046,0.083l0.045,0.084l0.042,0.085l0.04,0.086l0.039,0.088l0.036,0.089l0.034,0.089l0.032,0.091l0.03,0.092l0.028,0.093l0.025,0.094l0.023,0.094l0.021,0.096l0.018,0.096l0.016,0.097l0.014,0.098l0.011,0.099l0.009,0.099l0.007,0.1l0.003,0.101l0.002,0.101l0,45.415l-0.002,0.101l-0.003,0.101l-0.007,0.1l-0.009,0.1l-0.011,0.098l-0.014,0.098l-0.016,0.097l-0.018,0.097l-0.021,0.095l-0.023,0.095l-0.025,0.093l-0.028,0.093l-0.03,0.092l-0.032,0.091l-0.034,0.09l-0.036,0.088l-0.039,0.088l-0.04,0.086l-0.042,0.086l-0.045,0.084l-0.046,0.083l-0.049,0.081l-0.05,0.081l-0.052,0.079l-0.054,0.078l-0.055,0.076l-0.058,0.075l-0.059,0.073l-0.061,0.073l-0.063,0.07l-0.064,0.069l-0.066,0.068l-0.067,0.065l-0.069,0.065l-0.071,0.062l-0.072,0.061l-0.074,0.06l-0.075,0.057l-0.076,0.056l-0.078,0.054l-0.079,0.052l-0.08,0.05l-0.082,0.048l-0.083,0.047l-0.084,0.044l-0.085,0.042l-0.087,0.041l-0.087,0.038l-0.089,0.036l-0.09,0.035l-0.091,0.032l-0.091,0.029l-0.093,0.028l-0.094,0.025l-0.094,0.024l-0.096,0.02l-0.096,0.019l-0.097,0.016l-0.098,0.014l-0.099,0.011l-0.099,0.009l-0.1,0.006l-0.101,0.004l-0.102,0.001l-81.137,0l-0.101,-0.001l-0.101,-0.004l-0.1,-0.006l-0.099,-0.009l-0.099,-0.011l-0.098,-0.014l-0.097,-0.016l-0.096,-0.019l-0.096,-0.02l-0.094,-0.024l-0.094,-0.025l-0.093,-0.028l-0.092,-0.029l-0.091,-0.032l-0.089,-0.035l-0.089,-0.036l-0.088,-0.038l-0.086,-0.041l-0.085,-0.042l-0.084,-0.044l-0.083,-0.047l-0.082,-0.048l-0.08,-0.05l-0.08,-0.052l-0.077,-0.054l-0.077,-0.056l-0.075,-0.057l-0.073,-0.06l-0.072,-0.061l-0.071,-0.062l-0.069,-0.065l-0.067,-0.065l-0.066,-0.068l-0.064,-0.069l-0.063,-0.07l-0.061,-0.073l-0.059,-0.073l-0.058,-0.075l-0.055,-0.076l-0.054,-0.078l-0.052,-0.079l-0.051,-0.081l-0.048,-0.081l-0.046,-0.083l-0.045,-0.084l-0.042,-0.086l-0.041,-0.086l-0.038,-0.088l-0.036,-0.088l-0.034,-0.09l-0.032,-0.091l-0.03,-0.092l-0.028,-0.093l-0.025,-0.093l-0.023,-0.095l-0.021,-0.095l-0.019,-0.097l-0.016,-0.097l-0.013,-0.098l-0.012,-0.098l-0.009,-0.1l-0.006,-0.1l-0.004,-0.101l-0.001,-0.101l0,-45.415l0.001,-0.101l0.004,-0.101l0.006,-0.1l0.009,-0.099l0.012,-0.099l0.013,-0.098l0.016,-0.097l0.019,-0.096l0.021,-0.096l0.023,-0.094l0.025,-0.094l0.028,-0.093l0.03,-0.092l0.032,-0.091l0.034,-0.089l0.036,-0.089l0.038,-0.088l0.041,-0.086l0.042,-0.085l0.045,-0.084l0.046,-0.083l0.048,-0.082l0.051,-0.08l0.052,-0.08l0.054,-0.077l0.055,-0.077l0.058,-0.075l0.059,-0.073l0.061,-0.072l0.063,-0.071l0.064,-0.069l0.066,-0.067l0.067,-0.066l0.069,-0.064l0.071,-0.063l0.072,-0.061l0.073,-0.059l0.075,-0.058l0.077,-0.055l0.077,-0.054l0.08,-0.052l0.08,-0.051l0.082,-0.048l0.083,-0.046l0.084,-0.045l0.085,-0.042l0.086,-0.041l0.088,-0.038l0.089,-0.036l0.089,-0.034l0.091,-0.032l0.092,-0.03l0.093,-0.028l0.094,-0.025l0.094,-0.023l0.096,-0.021l0.096,-0.019l0.097,-0.016l0.098,-0.013l0.099,-0.012l0.099,-0.009l0.1,-0.006l0.101,-0.004l0.101,-0.001l81.137,0l0.102,0.001Zm-81.22,2.999l-0.044,0.001l-0.025,0.001l-0.024,0.001l-0.024,0.002l-0.023,0.003l-0.023,0.003l-0.023,0.004l-0.022,0.004l-0.022,0.005l-0.022,0.005l-0.022,0.006l-0.021,0.006l-0.021,0.007l-0.021,0.008l-0.021,0.008l-0.021,0.008l-0.02,0.009l-0.02,0.009l-0.02,0.01l-0.02,0.011l-0.019,0.011l-0.02,0.011l-0.019,0.012l-0.019,0.012l-0.018,0.013l-0.019,0.014l-0.018,0.013l-0.017,0.015l-0.018,0.014l-0.017,0.016l-0.016,0.015l-0.017,0.016l-0.016,0.017l-0.015,0.016l-0.016,0.017l-0.014,0.018l-0.015,0.017l-0.013,0.018l-0.014,0.019l-0.013,0.018l-0.012,0.019l-0.012,0.019l-0.011,0.02l-0.011,0.019l-0.011,0.02l-0.01,0.02l-0.009,0.02l-0.009,0.02l-0.008,0.021l-0.008,0.021l-0.008,0.021l-0.007,0.021l-0.006,0.021l-0.006,0.022l-0.005,0.022l-0.005,0.022l-0.004,0.022l-0.004,0.023l-0.003,0.023l-0.003,0.023l-0.002,0.024l-0.001,0.024l-0.001,0.025l-0.001,0.044l0,45.377l0.001,0.044l0.001,0.025l0.001,0.024l0.002,0.024l0.003,0.024l0.003,0.023l0.004,0.022l0.004,0.023l0.005,0.022l0.005,0.022l0.006,0.021l0.006,0.021l0.007,0.022l0.008,0.021l0.008,0.02l0.008,0.021l0.009,0.02l0.009,0.02l0.01,0.02l0.011,0.02l0.011,0.02l0.011,0.019l0.012,0.019l0.012,0.019l0.013,0.019l0.014,0.018l0.013,0.018l0.015,0.018l0.014,0.017l0.016,0.017l0.015,0.017l0.016,0.016l0.017,0.016l0.016,0.016l0.017,0.015l0.018,0.015l0.017,0.014l0.018,0.014l0.019,0.013l0.018,0.013l0.019,0.012l0.019,0.012l0.02,0.012l0.019,0.011l0.02,0.01l0.02,0.01l0.02,0.009l0.02,0.009l0.021,0.009l0.021,0.008l0.021,0.007l0.021,0.007l0.021,0.006l0.022,0.006l0.022,0.005l0.022,0.005l0.022,0.004l0.023,0.004l0.023,0.003l0.023,0.003l0.024,0.002l0.024,0.002l0.025,0.001l0.044,0l81.099,0l0.045,0l0.025,-0.001l0.024,-0.002l0.024,-0.002l0.023,-0.003l0.023,-0.003l0.023,-0.004l0.022,-0.004l0.022,-0.005l0.022,-0.005l0.022,-0.006l0.021,-0.006l0.021,-0.007l0.021,-0.007l0.021,-0.008l0.02,-0.009l0.021,-0.009l0.02,-0.009l0.02,-0.01l0.02,-0.01l0.019,-0.011l0.019,-0.012l0.02,-0.012l0.018,-0.012l0.019,-0.013l0.018,-0.013l0.018,-0.014l0.018,-0.014l0.017,-0.015l0.018,-0.015l0.016,-0.016l0.017,-0.016l0.016,-0.016l0.015,-0.017l0.015,-0.017l0.015,-0.017l0.014,-0.018l0.014,-0.018l0.013,-0.018l0.013,-0.019l0.013,-0.019l0.012,-0.019l0.011,-0.019l0.011,-0.02l0.01,-0.02l0.01,-0.02l0.01,-0.02l0.009,-0.02l0.008,-0.021l0.008,-0.02l0.007,-0.021l0.007,-0.022l0.007,-0.021l0.005,-0.021l0.006,-0.022l0.005,-0.022l0.004,-0.023l0.004,-0.022l0.003,-0.023l0.003,-0.024l0.002,-0.024l0.001,-0.024l0.001,-0.025l0.001,-0.044l0,-45.377l-0.001,-0.044l-0.001,-0.025l-0.001,-0.024l-0.002,-0.024l-0.003,-0.023l-0.003,-0.023l-0.004,-0.023l-0.004,-0.022l-0.005,-0.022l-0.006,-0.022l-0.005,-0.022l-0.007,-0.021l-0.007,-0.021l-0.007,-0.021l-0.008,-0.021l-0.008,-0.021l-0.009,-0.02l-0.01,-0.02l-0.01,-0.02l-0.01,-0.02l-0.011,-0.019l-0.011,-0.02l-0.012,-0.019l-0.013,-0.019l-0.013,-0.018l-0.013,-0.019l-0.014,-0.018l-0.014,-0.017l-0.015,-0.018l-0.015,-0.017l-0.015,-0.017l-0.016,-0.016l-0.017,-0.016l-0.016,-0.015l-0.018,-0.016l-0.017,-0.014l-0.018,-0.015l-0.018,-0.013l-0.018,-0.014l-0.019,-0.013l-0.018,-0.012l-0.02,-0.012l-0.019,-0.011l-0.019,-0.011l-0.02,-0.011l-0.02,-0.01l-0.02,-0.009l-0.021,-0.009l-0.02,-0.008l-0.021,-0.008l-0.021,-0.008l-0.021,-0.007l-0.021,-0.006l-0.022,-0.006l-0.022,-0.005l-0.022,-0.005l-0.022,-0.004l-0.023,-0.004l-0.023,-0.003l-0.023,-0.003l-0.024,-0.002l-0.024,-0.001l-0.025,-0.001l-0.045,-0.001l-81.099,0Z"/></g><path d="M53.12,34.339l0.064,0.001l0.064,0.002l0.063,0.003l0.064,0.004l0.063,0.004l0.063,0.005l0.063,0.006l0.062,0.007l0.062,0.007l0.062,0.009l0.062,0.009l0.062,0.01l0.061,0.01l0.061,0.011l0.061,0.012l0.06,0.013l0.06,0.014l0.06,0.014l0.06,0.015l0.059,0.016l0.059,0.016l0.059,0.017l0.058,0.018l0.059,0.018l0.057,0.02l0.058,0.019l0.057,0.021l0.114,0.043l0.112,0.046l0.11,0.048l0.11,0.052l0.107,0.053l0.107,0.056l0.105,0.059l0.103,0.061l0.101,0.063l0.1,0.066l0.099,0.068l0.096,0.071l0.095,0.072l0.093,0.075l0.091,0.077l0.089,0.079l0.087,0.082l0.086,0.083l0.083,0.085l0.081,0.087l0.079,0.09l0.077,0.091l0.075,0.093l0.073,0.094l0.07,0.097l0.068,0.098l0.066,0.1l0.064,0.102l0.061,0.103l0.058,0.105l0.056,0.106l0.054,0.108l0.051,0.109l0.048,0.111l0.046,0.112l0.043,0.113l0.021,0.058l0.02,0.057l0.019,0.058l0.019,0.058l0.017,0.059l0.018,0.058l0.016,0.059l0.016,0.06l0.015,0.059l0.014,0.06l0.013,0.06l0.013,0.061l0.012,0.061l0.011,0.061l0.011,0.061l0.01,0.061l0.009,0.062l0.008,0.062l0.008,0.062l0.006,0.063l0.006,0.063l0.006,0.063l0.004,0.063l0.004,0.063l0.002,0.064l0.002,0.063l0.002,0.064l0,0.064l0,3.359l0,0.065l-0.002,0.063l-0.002,0.064l-0.002,0.064l-0.004,0.063l-0.004,0.063l-0.006,0.063l-0.006,0.063l-0.006,0.062l-0.008,0.063l-0.008,0.062l-0.009,0.061l-0.01,0.062l-0.011,0.061l-0.011,0.061l-0.012,0.061l-0.013,0.06l-0.013,0.061l-0.014,0.059l-0.015,0.06l-0.016,0.059l-0.016,0.059l-0.018,0.059l-0.017,0.059l-0.019,0.058l-0.019,0.058l-0.02,0.057l-0.021,0.057l-0.043,0.114l-0.046,0.112l-0.048,0.111l-0.051,0.109l-0.054,0.108l-0.056,0.106l-0.058,0.105l-0.061,0.103l-0.064,0.102l-0.066,0.1l-0.068,0.098l-0.07,0.096l-0.073,0.095l-0.075,0.093l-0.077,0.091l-0.079,0.089l-0.081,0.088l-0.083,0.085l-0.086,0.083l-0.087,0.081l-0.089,0.08l-0.091,0.077l-0.093,0.074l-0.095,0.073l-0.096,0.07l-0.099,0.069l-0.1,0.065l-0.101,0.064l-0.103,0.061l-0.105,0.059l-0.107,0.056l-0.107,0.053l-0.11,0.051l-0.11,0.049l-0.112,0.046l-0.114,0.043l-0.057,0.02l-0.058,0.02l-0.057,0.019l-0.059,0.019l-0.058,0.018l-0.059,0.017l-0.059,0.016l-0.059,0.016l-0.06,0.015l-0.06,0.014l-0.06,0.014l-0.06,0.012l-0.061,0.012l-0.061,0.012l-0.061,0.01l-0.062,0.01l-0.062,0.009l-0.062,0.008l-0.062,0.008l-0.062,0.007l-0.063,0.006l-0.063,0.005l-0.063,0.004l-0.064,0.004l-0.063,0.003l-0.064,0.002l-0.064,0.001l-0.064,0l-15.203,0l-0.064,0l-0.064,-0.001l-0.064,-0.002l-0.063,-0.003l-0.063,-0.004l-0.064,-0.004l-0.063,-0.005l-0.062,-0.006l-0.063,-0.007l-0.062,-0.008l-0.062,-0.008l-0.062,-0.009l-0.061,-0.01l-0.061,-0.01l-0.061,-0.012l-0.061,-0.012l-0.061,-0.012l-0.06,-0.014l-0.06,-0.014l-0.059,-0.015l-0.06,-0.016l-0.059,-0.016l-0.059,-0.017l-0.058,-0.018l-0.058,-0.019l-0.058,-0.019l-0.058,-0.02l-0.057,-0.02l-0.113,-0.043l-0.112,-0.046l-0.111,-0.049l-0.109,-0.051l-0.108,-0.053l-0.106,-0.056l-0.105,-0.059l-0.103,-0.061l-0.102,-0.064l-0.1,-0.065l-0.098,-0.069l-0.097,-0.07l-0.094,-0.073l-0.093,-0.074l-0.091,-0.077l-0.09,-0.08l-0.087,-0.081l-0.085,-0.083l-0.083,-0.085l-0.082,-0.088l-0.079,-0.089l-0.077,-0.091l-0.075,-0.093l-0.072,-0.095l-0.071,-0.096l-0.068,-0.098l-0.066,-0.1l-0.063,-0.102l-0.061,-0.103l-0.059,-0.105l-0.056,-0.106l-0.054,-0.108l-0.051,-0.109l-0.048,-0.111l-0.046,-0.112l-0.043,-0.114l-0.021,-0.057l-0.02,-0.057l-0.019,-0.058l-0.018,-0.058l-0.018,-0.059l-0.017,-0.059l-0.017,-0.059l-0.015,-0.059l-0.015,-0.06l-0.014,-0.059l-0.014,-0.061l-0.013,-0.06l-0.012,-0.061l-0.011,-0.061l-0.011,-0.061l-0.009,-0.062l-0.009,-0.061l-0.009,-0.062l-0.007,-0.063l-0.007,-0.062l-0.006,-0.063l-0.005,-0.063l-0.005,-0.063l-0.003,-0.063l-0.003,-0.064l-0.002,-0.064l-0.001,-0.063l-0.001,-0.065l0,-3.359l0.001,-0.064l0.001,-0.064l0.002,-0.063l0.003,-0.064l0.003,-0.063l0.005,-0.063l0.005,-0.063l0.006,-0.063l0.007,-0.063l0.007,-0.062l0.009,-0.062l0.009,-0.062l0.009,-0.061l0.011,-0.061l0.011,-0.061l0.012,-0.061l0.013,-0.061l0.014,-0.06l0.014,-0.06l0.015,-0.059l0.015,-0.06l0.017,-0.059l0.017,-0.058l0.018,-0.059l0.018,-0.058l0.019,-0.058l0.02,-0.057l0.021,-0.058l0.043,-0.113l0.046,-0.112l0.048,-0.111l0.051,-0.109l0.054,-0.108l0.056,-0.106l0.059,-0.105l0.061,-0.103l0.063,-0.102l0.066,-0.1l0.068,-0.098l0.071,-0.097l0.072,-0.094l0.075,-0.093l0.077,-0.091l0.079,-0.09l0.082,-0.087l0.083,-0.085l0.085,-0.083l0.087,-0.082l0.09,-0.079l0.091,-0.077l0.093,-0.075l0.094,-0.072l0.097,-0.071l0.098,-0.068l0.1,-0.066l0.102,-0.063l0.103,-0.061l0.105,-0.059l0.106,-0.056l0.108,-0.053l0.109,-0.052l0.111,-0.048l0.112,-0.046l0.113,-0.043l0.057,-0.021l0.058,-0.019l0.058,-0.02l0.058,-0.018l0.058,-0.018l0.059,-0.017l0.059,-0.016l0.06,-0.016l0.059,-0.015l0.06,-0.014l0.06,-0.014l0.061,-0.013l0.061,-0.012l0.061,-0.011l0.061,-0.01l0.061,-0.01l0.062,-0.009l0.062,-0.009l0.062,-0.007l0.063,-0.007l0.062,-0.006l0.063,-0.005l0.064,-0.004l0.063,-0.004l0.063,-0.003l0.064,-0.002l0.064,-0.001l0.064,-0.001l15.203,0l0.064,0.001Zm-15.264,0.949l-0.055,0.001l-0.052,0.001l-0.051,0.001l-0.052,0.003l-0.051,0.003l-0.051,0.003l-0.051,0.004l-0.051,0.005l-0.051,0.006l-0.05,0.006l-0.05,0.006l-0.05,0.008l-0.05,0.008l-0.049,0.008l-0.049,0.009l-0.05,0.01l-0.048,0.01l-0.049,0.011l-0.048,0.012l-0.048,0.012l-0.048,0.013l-0.048,0.013l-0.047,0.014l-0.048,0.014l-0.047,0.015l-0.046,0.015l-0.047,0.016l-0.043,0.016l-0.094,0.036l-0.091,0.037l-0.089,0.039l-0.089,0.041l-0.087,0.044l-0.086,0.045l-0.084,0.047l-0.084,0.05l-0.082,0.051l-0.081,0.053l-0.08,0.055l-0.078,0.058l-0.076,0.058l-0.076,0.061l-0.073,0.062l-0.073,0.064l-0.07,0.066l-0.069,0.068l-0.068,0.069l-0.066,0.071l-0.064,0.072l-0.062,0.074l-0.061,0.075l-0.059,0.076l-0.057,0.079l-0.055,0.079l-0.053,0.081l-0.051,0.082l-0.05,0.084l-0.047,0.084l-0.045,0.086l-0.044,0.087l-0.041,0.089l-0.039,0.089l-0.037,0.091l-0.036,0.094l-0.016,0.043l-0.016,0.047l-0.015,0.047l-0.015,0.046l-0.015,0.048l-0.013,0.047l-0.014,0.048l-0.012,0.048l-0.012,0.048l-0.012,0.048l-0.011,0.049l-0.01,0.049l-0.01,0.049l-0.009,0.049l-0.008,0.049l-0.008,0.05l-0.008,0.05l-0.006,0.05l-0.006,0.05l-0.006,0.051l-0.005,0.051l-0.004,0.051l-0.004,0.051l-0.002,0.051l-0.003,0.052l-0.001,0.051l-0.001,0.052l-0.001,0.055l0,3.353l0.001,0.055l0.001,0.052l0.001,0.052l0.003,0.052l0.002,0.051l0.004,0.051l0.004,0.051l0.005,0.051l0.006,0.05l0.006,0.051l0.006,0.05l0.008,0.05l0.008,0.049l0.008,0.05l0.009,0.049l0.01,0.049l0.01,0.049l0.011,0.049l0.012,0.048l0.012,0.048l0.012,0.048l0.014,0.048l0.013,0.047l0.015,0.047l0.015,0.047l0.015,0.047l0.016,0.046l0.016,0.044l0.036,0.094l0.037,0.091l0.039,0.089l0.041,0.088l0.044,0.087l0.045,0.086l0.047,0.085l0.05,0.084l0.051,0.082l0.053,0.081l0.055,0.079l0.057,0.078l0.059,0.077l0.061,0.075l0.062,0.074l0.064,0.072l0.066,0.071l0.068,0.069l0.069,0.068l0.07,0.065l0.073,0.064l0.073,0.063l0.076,0.06l0.076,0.059l0.078,0.057l0.08,0.055l0.081,0.054l0.082,0.051l0.084,0.049l0.084,0.048l0.086,0.045l0.087,0.043l0.089,0.042l0.089,0.039l0.091,0.037l0.094,0.036l0.043,0.015l0.047,0.016l0.046,0.016l0.047,0.015l0.048,0.014l0.047,0.014l0.048,0.013l0.048,0.013l0.048,0.012l0.048,0.011l0.049,0.011l0.048,0.011l0.05,0.009l0.049,0.01l0.049,0.008l0.05,0.008l0.05,0.007l0.05,0.007l0.05,0.006l0.051,0.006l0.051,0.004l0.051,0.005l0.051,0.003l0.051,0.003l0.052,0.002l0.051,0.002l0.052,0.001l0.055,0l15.197,0l0.055,0l0.052,-0.001l0.052,-0.002l0.051,-0.002l0.052,-0.003l0.051,-0.003l0.051,-0.005l0.051,-0.004l0.05,-0.006l0.05,-0.006l0.05,-0.007l0.05,-0.007l0.05,-0.008l0.05,-0.008l0.049,-0.01l0.049,-0.009l0.049,-0.011l0.048,-0.011l0.049,-0.011l0.048,-0.012l0.048,-0.013l0.047,-0.013l0.048,-0.014l0.047,-0.014l0.047,-0.015l0.047,-0.016l0.046,-0.016l0.044,-0.015l0.094,-0.036l0.09,-0.037l0.09,-0.039l0.088,-0.042l0.087,-0.043l0.086,-0.045l0.085,-0.048l0.083,-0.049l0.083,-0.051l0.08,-0.054l0.08,-0.055l0.078,-0.057l0.077,-0.059l0.075,-0.06l0.074,-0.063l0.072,-0.064l0.071,-0.065l0.069,-0.068l0.067,-0.069l0.066,-0.071l0.064,-0.072l0.063,-0.074l0.06,-0.075l0.059,-0.077l0.057,-0.078l0.055,-0.079l0.053,-0.081l0.052,-0.082l0.049,-0.084l0.047,-0.085l0.046,-0.086l0.043,-0.087l0.041,-0.088l0.04,-0.089l0.037,-0.091l0.035,-0.094l0.016,-0.044l0.016,-0.046l0.016,-0.047l0.015,-0.047l0.014,-0.047l0.014,-0.047l0.013,-0.048l0.013,-0.048l0.012,-0.048l0.011,-0.048l0.011,-0.049l0.01,-0.049l0.01,-0.049l0.009,-0.049l0.009,-0.05l0.008,-0.049l0.007,-0.05l0.007,-0.05l0.006,-0.051l0.005,-0.05l0.005,-0.051l0.004,-0.051l0.004,-0.051l0.003,-0.051l0.002,-0.052l0.002,-0.052l0.001,-0.052l0,-0.055l0,-3.353l0,-0.055l-0.001,-0.052l-0.002,-0.051l-0.002,-0.052l-0.003,-0.051l-0.004,-0.051l-0.004,-0.051l-0.005,-0.051l-0.005,-0.051l-0.006,-0.05l-0.007,-0.05l-0.007,-0.05l-0.008,-0.05l-0.009,-0.049l-0.009,-0.049l-0.01,-0.049l-0.01,-0.049l-0.011,-0.049l-0.011,-0.048l-0.012,-0.048l-0.013,-0.048l-0.013,-0.048l-0.014,-0.047l-0.014,-0.048l-0.015,-0.046l-0.016,-0.047l-0.016,-0.047l-0.016,-0.043l-0.035,-0.094l-0.037,-0.091l-0.04,-0.089l-0.041,-0.089l-0.043,-0.087l-0.046,-0.086l-0.047,-0.084l-0.049,-0.084l-0.052,-0.082l-0.053,-0.081l-0.055,-0.079l-0.057,-0.079l-0.059,-0.076l-0.06,-0.075l-0.063,-0.074l-0.064,-0.072l-0.066,-0.071l-0.067,-0.069l-0.069,-0.068l-0.071,-0.066l-0.072,-0.064l-0.074,-0.062l-0.075,-0.061l-0.077,-0.058l-0.078,-0.058l-0.08,-0.055l-0.08,-0.053l-0.083,-0.051l-0.083,-0.05l-0.085,-0.047l-0.086,-0.045l-0.087,-0.044l-0.088,-0.041l-0.09,-0.039l-0.09,-0.037l-0.094,-0.036l-0.044,-0.016l-0.046,-0.016l-0.047,-0.015l-0.047,-0.015l-0.047,-0.014l-0.048,-0.014l-0.047,-0.013l-0.048,-0.013l-0.048,-0.012l-0.049,-0.012l-0.048,-0.011l-0.049,-0.01l-0.049,-0.01l-0.049,-0.009l-0.05,-0.008l-0.05,-0.008l-0.05,-0.008l-0.05,-0.006l-0.05,-0.006l-0.05,-0.006l-0.051,-0.005l-0.051,-0.004l-0.051,-0.003l-0.052,-0.003l-0.051,-0.003l-0.052,-0.001l-0.052,-0.001l-0.055,-0.001l-15.197,0Z"/><path d="M51.151,37.628l0.085,0.003l0.084,0.006l0.084,0.007l0.083,0.01l0.083,0.011l0.081,0.014l0.082,0.016l0.08,0.018l0.08,0.02l0.078,0.021l0.079,0.024l0.077,0.025l0.076,0.028l0.076,0.029l0.074,0.031l0.074,0.033l0.073,0.034l0.072,0.036l0.071,0.038l0.069,0.04l0.069,0.041l0.068,0.043l0.066,0.045l0.066,0.046l0.064,0.047l0.063,0.049l0.062,0.051l0.061,0.052l0.059,0.054l0.058,0.054l0.057,0.057l0.056,0.057l0.054,0.059l0.053,0.061l0.051,0.061l0.05,0.063l0.048,0.064l0.047,0.065l0.045,0.067l0.044,0.067l0.043,0.069l0.04,0.07l0.039,0.071l0.038,0.072l0.035,0.073l0.034,0.073l0.033,0.075l0.03,0.076l0.029,0.077l0.027,0.077l0.025,0.079l0.023,0.079l0.022,0.08l0.019,0.081l0.018,0.081l0.015,0.083l0.014,0.083l0.011,0.083l0.01,0.085l0.007,0.085l0.006,0.085l0.003,0.086l0.001,0.087l-0.001,0.087l-0.003,0.086l-0.006,0.085l-0.007,0.085l-0.01,0.084l-0.011,0.084l-0.014,0.083l-0.015,0.082l-0.018,0.082l-0.019,0.081l-0.022,0.08l-0.023,0.079l-0.025,0.078l-0.027,0.078l-0.029,0.077l-0.03,0.076l-0.033,0.074l-0.034,0.074l-0.035,0.073l-0.038,0.072l-0.039,0.071l-0.04,0.07l-0.043,0.068l-0.044,0.068l-0.045,0.066l-0.047,0.066l-0.048,0.064l-0.05,0.062l-0.051,0.062l-0.053,0.06l-0.054,0.059l-0.056,0.058l-0.057,0.056l-0.058,0.055l-0.059,0.054l-0.061,0.052l-0.062,0.05l-0.063,0.05l-0.064,0.047l-0.066,0.046l-0.066,0.045l-0.068,0.043l-0.069,0.041l-0.069,0.039l-0.071,0.038l-0.072,0.037l-0.073,0.034l-0.074,0.033l-0.074,0.031l-0.076,0.029l-0.076,0.027l-0.077,0.026l-0.079,0.024l-0.078,0.021l-0.08,0.02l-0.08,0.018l-0.082,0.016l-0.081,0.013l-0.083,0.012l-0.083,0.01l-0.084,0.007l-0.084,0.006l-0.085,0.003l-0.085,0.001l-0.085,-0.001l-0.085,-0.003l-0.084,-0.006l-0.084,-0.007l-0.083,-0.01l-0.083,-0.012l-0.081,-0.013l-0.081,-0.016l-0.081,-0.018l-0.079,-0.02l-0.079,-0.021l-0.078,-0.024l-0.078,-0.026l-0.076,-0.027l-0.076,-0.029l-0.074,-0.031l-0.074,-0.033l-0.073,-0.034l-0.072,-0.037l-0.071,-0.038l-0.069,-0.039l-0.069,-0.041l-0.068,-0.043l-0.066,-0.045l-0.066,-0.046l-0.064,-0.047l-0.063,-0.05l-0.062,-0.05l-0.061,-0.052l-0.059,-0.054l-0.058,-0.055l-0.057,-0.056l-0.056,-0.058l-0.054,-0.059l-0.052,-0.06l-0.052,-0.062l-0.05,-0.062l-0.048,-0.064l-0.047,-0.066l-0.045,-0.066l-0.044,-0.068l-0.042,-0.068l-0.041,-0.07l-0.039,-0.071l-0.038,-0.072l-0.035,-0.073l-0.034,-0.074l-0.033,-0.074l-0.03,-0.076l-0.029,-0.077l-0.027,-0.078l-0.025,-0.078l-0.023,-0.079l-0.022,-0.08l-0.019,-0.081l-0.017,-0.082l-0.016,-0.082l-0.014,-0.083l-0.011,-0.084l-0.01,-0.084l-0.007,-0.085l-0.005,-0.085l-0.004,-0.086l-0.001,-0.087l0.001,-0.087l0.004,-0.086l0.005,-0.085l0.007,-0.085l0.01,-0.085l0.011,-0.083l0.014,-0.083l0.016,-0.083l0.017,-0.081l0.019,-0.081l0.022,-0.08l0.023,-0.079l0.025,-0.079l0.027,-0.077l0.029,-0.077l0.03,-0.076l0.033,-0.075l0.034,-0.073l0.035,-0.073l0.038,-0.072l0.039,-0.071l0.041,-0.07l0.042,-0.069l0.044,-0.067l0.045,-0.067l0.047,-0.065l0.048,-0.064l0.05,-0.063l0.052,-0.061l0.052,-0.061l0.054,-0.059l0.056,-0.057l0.057,-0.057l0.058,-0.054l0.059,-0.054l0.061,-0.052l0.062,-0.051l0.063,-0.049l0.064,-0.047l0.066,-0.046l0.066,-0.045l0.068,-0.043l0.069,-0.041l0.069,-0.04l0.071,-0.038l0.072,-0.036l0.073,-0.034l0.074,-0.033l0.074,-0.031l0.076,-0.029l0.076,-0.028l0.078,-0.025l0.078,-0.024l0.079,-0.021l0.079,-0.02l0.081,-0.018l0.081,-0.016l0.081,-0.014l0.083,-0.011l0.083,-0.01l0.084,-0.007l0.084,-0.006l0.085,-0.003l0.085,-0.001l0.085,0.001Zm-0.146,0.95l-0.06,0.002l-0.06,0.004l-0.06,0.005l-0.058,0.007l-0.059,0.008l-0.058,0.01l-0.057,0.011l-0.057,0.013l-0.056,0.014l-0.056,0.015l-0.055,0.017l-0.055,0.018l-0.054,0.019l-0.053,0.021l-0.053,0.022l-0.053,0.023l-0.051,0.025l-0.051,0.025l-0.051,0.027l-0.049,0.028l-0.049,0.03l-0.049,0.03l-0.047,0.032l-0.047,0.033l-0.046,0.034l-0.045,0.035l-0.044,0.036l-0.043,0.038l-0.043,0.038l-0.042,0.039l-0.04,0.041l-0.04,0.041l-0.039,0.042l-0.038,0.044l-0.037,0.044l-0.036,0.045l-0.034,0.046l-0.034,0.047l-0.033,0.047l-0.031,0.049l-0.03,0.049l-0.03,0.05l-0.028,0.051l-0.026,0.052l-0.026,0.052l-0.025,0.053l-0.023,0.054l-0.022,0.054l-0.02,0.055l-0.02,0.056l-0.018,0.056l-0.016,0.057l-0.016,0.058l-0.014,0.058l-0.012,0.058l-0.011,0.06l-0.01,0.059l-0.008,0.061l-0.007,0.06l-0.006,0.062l-0.004,0.062l-0.002,0.062l-0.001,0.063l0.001,0.063l0.002,0.062l0.004,0.062l0.006,0.061l0.007,0.061l0.008,0.06l0.01,0.06l0.011,0.059l0.012,0.059l0.014,0.058l0.016,0.058l0.016,0.056l0.018,0.057l0.02,0.055l0.02,0.055l0.022,0.055l0.023,0.054l0.025,0.053l0.026,0.052l0.026,0.052l0.028,0.05l0.03,0.051l0.03,0.049l0.031,0.048l0.033,0.048l0.034,0.047l0.034,0.046l0.036,0.045l0.037,0.044l0.038,0.044l0.039,0.042l0.04,0.041l0.04,0.041l0.042,0.039l0.043,0.038l0.043,0.038l0.044,0.036l0.045,0.035l0.046,0.034l0.047,0.033l0.047,0.031l0.049,0.031l0.049,0.029l0.049,0.029l0.051,0.027l0.051,0.025l0.051,0.025l0.053,0.023l0.053,0.022l0.053,0.021l0.054,0.019l0.055,0.018l0.055,0.017l0.056,0.015l0.056,0.014l0.057,0.013l0.057,0.011l0.058,0.009l0.059,0.009l0.058,0.007l0.06,0.005l0.06,0.004l0.06,0.002l0.061,0.001l0.061,-0.001l0.06,-0.002l0.06,-0.004l0.06,-0.005l0.058,-0.007l0.059,-0.009l0.058,-0.009l0.057,-0.011l0.057,-0.013l0.056,-0.014l0.056,-0.015l0.055,-0.017l0.055,-0.018l0.054,-0.019l0.054,-0.021l0.052,-0.022l0.053,-0.023l0.051,-0.025l0.051,-0.025l0.051,-0.027l0.049,-0.029l0.049,-0.029l0.049,-0.031l0.047,-0.031l0.047,-0.033l0.046,-0.034l0.045,-0.035l0.044,-0.036l0.044,-0.038l0.042,-0.038l0.042,-0.039l0.041,-0.041l0.039,-0.041l0.039,-0.042l0.038,-0.044l0.037,-0.044l0.036,-0.045l0.034,-0.046l0.034,-0.047l0.033,-0.048l0.031,-0.048l0.03,-0.049l0.03,-0.051l0.028,-0.05l0.027,-0.052l0.025,-0.052l0.025,-0.053l0.023,-0.054l0.022,-0.055l0.02,-0.055l0.02,-0.055l0.018,-0.057l0.016,-0.056l0.016,-0.058l0.014,-0.058l0.012,-0.059l0.011,-0.059l0.01,-0.06l0.009,-0.06l0.006,-0.061l0.006,-0.061l0.004,-0.062l0.002,-0.062l0.001,-0.063l-0.001,-0.063l-0.002,-0.062l-0.004,-0.062l-0.006,-0.062l-0.006,-0.06l-0.009,-0.061l-0.01,-0.059l-0.011,-0.06l-0.012,-0.058l-0.014,-0.058l-0.016,-0.058l-0.016,-0.057l-0.018,-0.056l-0.02,-0.056l-0.02,-0.055l-0.022,-0.054l-0.023,-0.054l-0.025,-0.053l-0.025,-0.052l-0.027,-0.052l-0.028,-0.051l-0.03,-0.05l-0.03,-0.049l-0.031,-0.049l-0.033,-0.047l-0.034,-0.047l-0.034,-0.046l-0.036,-0.045l-0.037,-0.044l-0.038,-0.044l-0.039,-0.042l-0.039,-0.041l-0.041,-0.041l-0.042,-0.039l-0.042,-0.038l-0.044,-0.038l-0.044,-0.036l-0.045,-0.035l-0.046,-0.034l-0.047,-0.033l-0.047,-0.032l-0.049,-0.03l-0.049,-0.03l-0.049,-0.028l-0.051,-0.027l-0.051,-0.025l-0.051,-0.025l-0.053,-0.023l-0.052,-0.022l-0.054,-0.021l-0.054,-0.019l-0.055,-0.018l-0.055,-0.017l-0.056,-0.015l-0.056,-0.014l-0.057,-0.013l-0.057,-0.011l-0.058,-0.01l-0.058,-0.008l-0.059,-0.007l-0.06,-0.005l-0.06,-0.004l-0.06,-0.002l-0.061,-0.001l-0.061,0.001Z"/><path d="M39.788,37.627l0.036,0.002l0.036,0.004l0.035,0.004l0.036,0.006l0.034,0.007l0.035,0.009l0.034,0.009l0.034,0.011l0.034,0.012l0.034,0.013l0.033,0.015l0.032,0.015l0.033,0.017l0.032,0.017l0.031,0.019l0.031,0.02l0.031,0.021l0.031,0.022l0.03,0.023l0.029,0.024l0.029,0.025l0.029,0.026l0.028,0.027l0.028,0.028l0.027,0.029l0.027,0.03l0.026,0.031l0.026,0.032l0.025,0.032l0.024,0.034l0.024,0.034l0.024,0.035l0.023,0.036l0.022,0.036l0.022,0.038l0.021,0.038l0.02,0.039l0.02,0.039l0.019,0.041l0.019,0.041l0.018,0.042l0.017,0.042l0.017,0.043l0.015,0.044l0.015,0.044l0.015,0.045l0.014,0.045l0.012,0.046l0.013,0.047l0.011,0.047l0.011,0.048l0.009,0.048l0.01,0.049l0.008,0.049l0.007,0.049l0.007,0.05l0.005,0.051l0.005,0.051l0.004,0.051l0.004,0.052l0.002,0.051l0.001,0.053l0.001,0.052l0.056,0.001l0.055,0.001l0.055,0.002l0.055,0.003l0.055,0.004l0.054,0.005l0.053,0.005l0.053,0.006l0.053,0.007l0.052,0.008l0.052,0.008l0.051,0.01l0.051,0.01l0.05,0.01l0.05,0.012l0.049,0.012l0.048,0.013l0.048,0.013l0.047,0.015l0.046,0.015l0.046,0.015l0.045,0.016l0.044,0.017l0.044,0.018l0.043,0.018l0.042,0.018l0.041,0.02l0.041,0.019l0.04,0.021l0.039,0.021l0.038,0.021l0.037,0.022l0.036,0.023l0.036,0.023l0.034,0.024l0.034,0.024l0.033,0.025l0.031,0.025l0.031,0.025l0.03,0.027l0.029,0.026l0.027,0.027l0.027,0.027l0.026,0.028l0.024,0.028l0.024,0.029l0.022,0.029l0.021,0.029l0.02,0.03l0.019,0.03l0.017,0.031l0.017,0.03l0.015,0.031l0.014,0.032l0.013,0.032l0.011,0.032l0.011,0.032l0.009,0.032l0.007,0.033l0.006,0.033l0.005,0.034l0.004,0.033l0.002,0.034l0.001,0.034l-0.001,0.034l-0.002,0.034l-0.004,0.033l-0.005,0.034l-0.006,0.033l-0.007,0.032l-0.009,0.033l-0.011,0.032l-0.011,0.032l-0.013,0.032l-0.014,0.031l-0.015,0.031l-0.017,0.031l-0.017,0.031l-0.019,0.03l-0.02,0.03l-0.021,0.029l-0.022,0.029l-0.024,0.028l-0.024,0.029l-0.026,0.027l-0.027,0.028l-0.027,0.027l-0.029,0.026l-0.03,0.026l-0.031,0.026l-0.031,0.025l-0.033,0.025l-0.034,0.024l-0.034,0.024l-0.036,0.023l-0.036,0.022l-0.037,0.022l-0.038,0.022l-0.039,0.021l-0.04,0.02l-0.041,0.02l-0.041,0.019l-0.042,0.019l-0.043,0.018l-0.044,0.018l-0.044,0.017l-0.045,0.016l-0.046,0.015l-0.046,0.015l-0.047,0.014l-0.048,0.014l-0.048,0.013l-0.049,0.012l-0.05,0.011l-0.05,0.011l-0.051,0.01l-0.051,0.009l-0.052,0.009l-0.052,0.008l-0.053,0.007l-0.053,0.006l-0.053,0.005l-0.054,0.005l-0.055,0.004l-0.055,0.003l-0.055,0.002l-0.055,0.001l-0.056,0l-0.001,0.053l-0.001,0.052l-0.002,0.052l-0.004,0.052l-0.004,0.051l-0.005,0.051l-0.005,0.05l-0.007,0.05l-0.007,0.05l-0.008,0.049l-0.01,0.049l-0.009,0.048l-0.011,0.048l-0.011,0.047l-0.013,0.046l-0.012,0.046l-0.014,0.046l-0.015,0.045l-0.015,0.044l-0.015,0.044l-0.017,0.043l-0.017,0.042l-0.018,0.042l-0.019,0.041l-0.019,0.04l-0.02,0.04l-0.02,0.039l-0.021,0.038l-0.022,0.038l-0.022,0.036l-0.023,0.036l-0.024,0.035l-0.024,0.034l-0.024,0.034l-0.025,0.032l-0.026,0.032l-0.026,0.031l-0.027,0.029l-0.027,0.029l-0.028,0.028l-0.028,0.027l-0.029,0.026l-0.029,0.026l-0.029,0.024l-0.03,0.023l-0.031,0.022l-0.031,0.021l-0.031,0.02l-0.031,0.018l-0.032,0.018l-0.033,0.017l-0.032,0.015l-0.033,0.015l-0.034,0.013l-0.034,0.012l-0.034,0.011l-0.034,0.009l-0.035,0.009l-0.034,0.007l-0.036,0.006l-0.035,0.004l-0.036,0.003l-0.036,0.002l-0.036,0.001l-0.036,-0.001l-0.036,-0.002l-0.035,-0.003l-0.036,-0.004l-0.035,-0.006l-0.035,-0.007l-0.034,-0.009l-0.035,-0.009l-0.034,-0.011l-0.033,-0.012l-0.034,-0.013l-0.033,-0.015l-0.033,-0.015l-0.032,-0.017l-0.032,-0.018l-0.031,-0.018l-0.032,-0.02l-0.03,-0.021l-0.031,-0.022l-0.03,-0.023l-0.029,-0.024l-0.029,-0.026l-0.029,-0.026l-0.028,-0.027l-0.028,-0.028l-0.027,-0.029l-0.027,-0.029l-0.026,-0.031l-0.026,-0.032l-0.025,-0.032l-0.025,-0.034l-0.024,-0.034l-0.023,-0.035l-0.023,-0.036l-0.022,-0.036l-0.022,-0.038l-0.021,-0.038l-0.021,-0.039l-0.019,-0.04l-0.02,-0.04l-0.018,-0.041l-0.018,-0.042l-0.017,-0.042l-0.017,-0.043l-0.016,-0.044l-0.015,-0.044l-0.014,-0.045l-0.014,-0.046l-0.013,-0.046l-0.012,-0.046l-0.011,-0.047l-0.011,-0.048l-0.01,-0.048l-0.009,-0.049l-0.008,-0.049l-0.007,-0.05l-0.007,-0.05l-0.006,-0.05l-0.005,-0.051l-0.004,-0.051l-0.003,-0.052l-0.002,-0.052l-0.001,-0.052l-0.001,-0.053l-0.056,0l-0.055,-0.001l-0.056,-0.002l-0.054,-0.003l-0.055,-0.004l-0.054,-0.005l-0.054,-0.005l-0.053,-0.006l-0.052,-0.007l-0.053,-0.008l-0.051,-0.009l-0.052,-0.009l-0.05,-0.01l-0.05,-0.011l-0.05,-0.011l-0.049,-0.012l-0.048,-0.013l-0.048,-0.014l-0.047,-0.014l-0.046,-0.015l-0.046,-0.015l-0.045,-0.016l-0.045,-0.017l-0.043,-0.018l-0.043,-0.018l-0.042,-0.019l-0.042,-0.019l-0.04,-0.02l-0.04,-0.02l-0.039,-0.021l-0.038,-0.022l-0.037,-0.022l-0.037,-0.022l-0.035,-0.023l-0.035,-0.024l-0.033,-0.024l-0.033,-0.025l-0.032,-0.025l-0.03,-0.026l-0.03,-0.026l-0.029,-0.026l-0.028,-0.027l-0.026,-0.028l-0.026,-0.027l-0.024,-0.029l-0.024,-0.028l-0.022,-0.029l-0.021,-0.029l-0.02,-0.03l-0.019,-0.03l-0.018,-0.031l-0.016,-0.031l-0.015,-0.031l-0.014,-0.031l-0.013,-0.032l-0.012,-0.032l-0.01,-0.032l-0.009,-0.033l-0.007,-0.032l-0.007,-0.033l-0.004,-0.034l-0.004,-0.033l-0.002,-0.034l-0.001,-0.034l0.001,-0.034l0.002,-0.034l0.004,-0.033l0.004,-0.034l0.007,-0.033l0.007,-0.033l0.009,-0.032l0.01,-0.032l0.012,-0.032l0.013,-0.032l0.014,-0.032l0.015,-0.031l0.016,-0.03l0.018,-0.031l0.019,-0.03l0.02,-0.03l0.021,-0.029l0.022,-0.029l0.024,-0.029l0.024,-0.028l0.026,-0.028l0.026,-0.027l0.028,-0.027l0.029,-0.026l0.03,-0.027l0.03,-0.025l0.032,-0.025l0.033,-0.025l0.033,-0.024l0.035,-0.024l0.035,-0.023l0.037,-0.023l0.037,-0.022l0.038,-0.021l0.039,-0.021l0.04,-0.021l0.04,-0.019l0.042,-0.02l0.042,-0.018l0.043,-0.018l0.043,-0.018l0.045,-0.017l0.045,-0.016l0.046,-0.015l0.046,-0.015l0.047,-0.015l0.048,-0.013l0.048,-0.013l0.049,-0.012l0.05,-0.012l0.05,-0.01l0.05,-0.01l0.052,-0.01l0.051,-0.008l0.053,-0.008l0.052,-0.007l0.053,-0.006l0.054,-0.005l0.054,-0.005l0.055,-0.004l0.054,-0.003l0.056,-0.002l0.055,-0.001l0.056,-0.001l0.001,-0.052l0.001,-0.053l0.002,-0.051l0.003,-0.052l0.004,-0.051l0.005,-0.051l0.006,-0.051l0.007,-0.05l0.007,-0.049l0.008,-0.049l0.009,-0.049l0.01,-0.048l0.011,-0.048l0.011,-0.047l0.012,-0.047l0.013,-0.046l0.014,-0.045l0.014,-0.045l0.015,-0.044l0.016,-0.044l0.017,-0.043l0.017,-0.042l0.018,-0.042l0.018,-0.041l0.02,-0.041l0.019,-0.039l0.021,-0.039l0.021,-0.038l0.022,-0.038l0.022,-0.036l0.023,-0.036l0.023,-0.035l0.024,-0.034l0.025,-0.034l0.025,-0.032l0.026,-0.032l0.026,-0.031l0.027,-0.03l0.027,-0.029l0.028,-0.028l0.028,-0.027l0.029,-0.026l0.029,-0.025l0.029,-0.024l0.03,-0.023l0.031,-0.022l0.03,-0.021l0.032,-0.02l0.031,-0.019l0.032,-0.017l0.032,-0.017l0.033,-0.015l0.033,-0.015l0.034,-0.013l0.033,-0.012l0.034,-0.011l0.035,-0.009l0.034,-0.009l0.035,-0.007l0.035,-0.006l0.036,-0.004l0.035,-0.004l0.036,-0.002l0.036,0l0.036,0Zm-0.037,0.95l-0.001,0l0,0l-0.001,0l-0.002,0l-0.001,0.001l-0.002,0l-0.002,0.001l-0.002,0.001l-0.004,0.001l-0.003,0.001l-0.004,0.002l-0.005,0.002l-0.005,0.003l-0.006,0.003l-0.007,0.004l-0.007,0.004l-0.007,0.006l-0.008,0.005l-0.009,0.007l-0.009,0.007l-0.01,0.009l-0.009,0.009l-0.011,0.009l-0.01,0.011l-0.011,0.012l-0.011,0.012l-0.012,0.013l-0.011,0.015l-0.012,0.015l-0.011,0.015l-0.012,0.017l-0.012,0.018l-0.012,0.018l-0.012,0.02l-0.011,0.02l-0.012,0.021l-0.011,0.022l-0.012,0.022l-0.011,0.024l-0.011,0.024l-0.01,0.024l-0.011,0.026l-0.01,0.026l-0.009,0.027l-0.01,0.027l-0.009,0.029l-0.008,0.028l-0.009,0.03l-0.007,0.03l-0.008,0.03l-0.007,0.031l-0.006,0.032l-0.006,0.032l-0.006,0.033l-0.005,0.033l-0.004,0.033l-0.004,0.034l-0.003,0.034l-0.003,0.035l-0.002,0.035l-0.002,0.036l-0.001,0.035l0,0.045l-0.002,0.051l-0.004,0.05l-0.007,0.051l-0.01,0.05l-0.013,0.049l-0.015,0.049l-0.018,0.047l-0.02,0.047l-0.023,0.045l-0.025,0.045l-0.028,0.043l-0.03,0.041l-0.032,0.039l-0.034,0.038l-0.036,0.036l-0.038,0.034l-0.039,0.032l-0.042,0.03l-0.042,0.027l-0.045,0.026l-0.045,0.022l-0.047,0.021l-0.048,0.017l-0.048,0.016l-0.05,0.012l-0.05,0.01l-0.05,0.007l-0.051,0.005l-0.051,0.001l-0.048,0.001l-0.041,0.001l-0.041,0.001l-0.04,0.002l-0.04,0.003l-0.039,0.004l-0.039,0.004l-0.038,0.004l-0.038,0.005l-0.038,0.006l-0.037,0.006l-0.036,0.006l-0.036,0.007l-0.035,0.008l-0.034,0.008l-0.034,0.008l-0.033,0.009l-0.033,0.009l-0.031,0.01l-0.031,0.01l-0.031,0.01l-0.029,0.01l-0.029,0.011l-0.027,0.011l-0.027,0.012l-0.026,0.011l-0.025,0.012l-0.024,0.012l-0.023,0.012l-0.023,0.012l-0.021,0.011l-0.02,0.012l-0.019,0.012l-0.018,0.012l-0.017,0.012l-0.016,0.011l-0.015,0.011l-0.014,0.011l-0.012,0.011l-0.012,0.01l-0.01,0.01l-0.01,0.009l-0.008,0.009l-0.002,0.002l0.002,0.002l0.008,0.009l0.009,0.009l0.011,0.01l0.012,0.01l0.012,0.01l0.014,0.011l0.015,0.012l0.016,0.011l0.017,0.012l0.018,0.011l0.019,0.012l0.02,0.012l0.021,0.012l0.023,0.012l0.023,0.012l0.024,0.012l0.025,0.012l0.026,0.011l0.027,0.011l0.027,0.011l0.029,0.011l0.029,0.011l0.031,0.01l0.031,0.01l0.031,0.01l0.033,0.009l0.033,0.009l0.034,0.008l0.034,0.008l0.035,0.008l0.036,0.007l0.036,0.006l0.037,0.006l0.038,0.006l0.038,0.005l0.038,0.004l0.039,0.004l0.039,0.004l0.04,0.002l0.04,0.003l0.041,0.001l0.041,0.001l0.049,0l0.05,0.002l0.051,0.005l0.051,0.007l0.049,0.01l0.05,0.012l0.048,0.015l0.048,0.018l0.047,0.02l0.045,0.023l0.045,0.025l0.042,0.028l0.042,0.03l0.039,0.032l0.038,0.034l0.036,0.036l0.034,0.037l0.032,0.04l0.03,0.041l0.028,0.043l0.025,0.044l0.023,0.046l0.02,0.047l0.018,0.047l0.015,0.049l0.013,0.049l0.01,0.05l0.007,0.051l0.004,0.05l0.002,0.051l0,0.044l0.001,0.036l0.002,0.036l0.002,0.035l0.003,0.034l0.003,0.035l0.004,0.034l0.004,0.033l0.005,0.033l0.006,0.033l0.006,0.032l0.006,0.031l0.007,0.032l0.008,0.03l0.007,0.03l0.009,0.029l0.008,0.029l0.009,0.028l0.01,0.028l0.009,0.027l0.01,0.026l0.011,0.025l0.01,0.025l0.011,0.024l0.011,0.024l0.012,0.022l0.011,0.022l0.012,0.021l0.011,0.02l0.012,0.019l0.012,0.019l0.012,0.018l0.012,0.016l0.011,0.016l0.012,0.015l0.011,0.014l0.012,0.014l0.011,0.012l0.011,0.012l0.01,0.01l0.011,0.01l0.009,0.009l0.01,0.008l0.009,0.008l0.009,0.006l0.008,0.006l0.007,0.005l0.007,0.005l0.007,0.004l0.006,0.003l0.005,0.003l0.005,0.002l0.007,0.003l0.006,0.002l0.007,0.002l0.003,0l0.001,0l0.001,0l0.001,0l0.001,0l0.001,-0.001l0.002,0l0.002,0l0.002,-0.001l0.002,-0.001l0.003,-0.001l0.004,-0.001l0.004,-0.002l0.005,-0.002l0.005,-0.003l0.006,-0.003l0.006,-0.004l0.007,-0.005l0.008,-0.005l0.008,-0.006l0.009,-0.006l0.009,-0.008l0.009,-0.008l0.01,-0.009l0.01,-0.01l0.011,-0.01l0.011,-0.012l0.011,-0.012l0.011,-0.014l0.012,-0.014l0.011,-0.015l0.012,-0.016l0.012,-0.016l0.012,-0.018l0.012,-0.019l0.011,-0.019l0.012,-0.02l0.012,-0.021l0.011,-0.022l0.011,-0.022l0.011,-0.024l0.011,-0.024l0.011,-0.025l0.01,-0.025l0.01,-0.026l0.01,-0.027l0.009,-0.028l0.01,-0.028l0.008,-0.029l0.008,-0.029l0.008,-0.03l0.008,-0.03l0.007,-0.032l0.006,-0.031l0.006,-0.032l0.005,-0.033l0.005,-0.033l0.005,-0.033l0.004,-0.034l0.003,-0.035l0.003,-0.034l0.002,-0.035l0.001,-0.036l0.001,-0.035l0.001,-0.045l0.001,-0.051l0.005,-0.05l0.007,-0.051l0.01,-0.05l0.013,-0.049l0.015,-0.049l0.018,-0.047l0.02,-0.047l0.023,-0.046l0.025,-0.044l0.028,-0.043l0.029,-0.041l0.032,-0.04l0.034,-0.037l0.036,-0.036l0.038,-0.034l0.04,-0.032l0.041,-0.03l0.043,-0.028l0.044,-0.025l0.046,-0.023l0.047,-0.02l0.047,-0.018l0.049,-0.015l0.049,-0.012l0.05,-0.01l0.051,-0.007l0.05,-0.005l0.051,-0.002l0.049,0l0.041,-0.001l0.04,-0.001l0.041,-0.003l0.039,-0.002l0.04,-0.004l0.039,-0.004l0.038,-0.004l0.038,-0.005l0.038,-0.006l0.036,-0.006l0.037,-0.006l0.036,-0.007l0.035,-0.008l0.034,-0.008l0.034,-0.008l0.033,-0.009l0.033,-0.009l0.031,-0.01l0.031,-0.01l0.03,-0.01l0.03,-0.011l0.028,-0.011l0.028,-0.011l0.027,-0.011l0.026,-0.011l0.025,-0.012l0.024,-0.012l0.023,-0.012l0.022,-0.012l0.022,-0.012l0.02,-0.012l0.019,-0.012l0.018,-0.011l0.017,-0.012l0.016,-0.011l0.015,-0.012l0.013,-0.011l0.013,-0.01l0.012,-0.01l0.01,-0.01l0.01,-0.009l0.008,-0.009l0.002,-0.002l-0.002,-0.002l-0.008,-0.009l-0.01,-0.009l-0.01,-0.01l-0.012,-0.01l-0.013,-0.011l-0.013,-0.011l-0.015,-0.011l-0.016,-0.011l-0.017,-0.012l-0.018,-0.012l-0.019,-0.012l-0.02,-0.012l-0.022,-0.011l-0.022,-0.012l-0.023,-0.012l-0.024,-0.012l-0.025,-0.012l-0.026,-0.011l-0.027,-0.012l-0.028,-0.011l-0.028,-0.011l-0.03,-0.01l-0.03,-0.01l-0.031,-0.01l-0.031,-0.01l-0.033,-0.009l-0.033,-0.009l-0.034,-0.008l-0.034,-0.008l-0.035,-0.008l-0.036,-0.007l-0.037,-0.006l-0.036,-0.006l-0.038,-0.006l-0.038,-0.005l-0.038,-0.004l-0.039,-0.004l-0.04,-0.004l-0.039,-0.003l-0.041,-0.002l-0.04,-0.001l-0.041,-0.001l-0.049,-0.001l-0.051,-0.001l-0.05,-0.005l-0.051,-0.007l-0.05,-0.01l-0.049,-0.012l-0.049,-0.016l-0.047,-0.017l-0.047,-0.021l-0.046,-0.022l-0.044,-0.026l-0.043,-0.027l-0.041,-0.03l-0.04,-0.032l-0.038,-0.034l-0.036,-0.036l-0.034,-0.038l-0.032,-0.039l-0.029,-0.041l-0.028,-0.043l-0.025,-0.045l-0.023,-0.045l-0.02,-0.047l-0.018,-0.047l-0.015,-0.049l-0.013,-0.049l-0.01,-0.05l-0.007,-0.051l-0.005,-0.05l-0.001,-0.051l-0.001,-0.045l-0.001,-0.035l-0.001,-0.036l-0.002,-0.035l-0.003,-0.035l-0.003,-0.034l-0.004,-0.034l-0.005,-0.033l-0.005,-0.033l-0.005,-0.033l-0.006,-0.032l-0.006,-0.032l-0.007,-0.031l-0.008,-0.03l-0.008,-0.03l-0.008,-0.03l-0.008,-0.028l-0.01,-0.029l-0.009,-0.027l-0.01,-0.027l-0.01,-0.026l-0.01,-0.026l-0.011,-0.024l-0.011,-0.024l-0.011,-0.024l-0.011,-0.022l-0.011,-0.022l-0.012,-0.021l-0.012,-0.02l-0.011,-0.02l-0.012,-0.018l-0.012,-0.018l-0.012,-0.017l-0.012,-0.015l-0.011,-0.015l-0.012,-0.015l-0.011,-0.013l-0.011,-0.012l-0.011,-0.012l-0.011,-0.011l-0.01,-0.009l-0.01,-0.009l-0.009,-0.009l-0.009,-0.007l-0.009,-0.007l-0.008,-0.005l-0.008,-0.006l-0.007,-0.004l-0.006,-0.004l-0.006,-0.003l-0.005,-0.003l-0.005,-0.002l-0.004,-0.002l-0.004,-0.001l-0.003,-0.001l-0.002,-0.001l-0.002,-0.001l-0.002,0l-0.002,-0.001l-0.001,0l-0.001,0l-0.001,0l-0.001,0l-0.001,0l-0.001,0Z"/><path d="M44.584,34.676c0,0 -0.506,-1.535 0.036,-1.762c0.722,-0.304 3.595,0.311 4.295,-0.06c0.639,-0.337 0.598,-1.951 -0.092,-2.165c-1.168,-0.361 -5.779,0.316 -6.914,0c-0.609,-0.169 -0.465,-1.624 0.107,-1.895c0.763,-0.362 3.713,0.084 4.477,-0.275c0.568,-0.268 -0.417,-1.69 -0.382,-2.317" style="fill:none;stroke:#000;stroke-width:1px;"/><path d="M9.851,26.237l0,0.401l-6.854,0l0,-0.401l2.067,0c-0.49,-0.292 -0.877,-0.689 -1.159,-1.192c-0.283,-0.503 -0.424,-1.071 -0.424,-1.704c0,-0.956 0.331,-1.757 0.992,-2.403c0.661,-0.645 1.496,-0.968 2.505,-0.968c1.009,0 1.852,0.372 2.528,1.117l-0.698,0.764c-0.311,-0.298 -0.604,-0.506 -0.88,-0.624c-0.277,-0.118 -0.601,-0.177 -0.973,-0.177c-0.659,0 -1.211,0.213 -1.658,0.638c-0.447,0.425 -0.671,0.968 -0.671,1.63c0,0.661 0.222,1.213 0.666,1.657c0.444,0.444 0.97,0.666 1.579,0.666c0.378,0 0.704,-0.063 0.978,-0.191c0.273,-0.127 0.558,-0.33 0.856,-0.61l0.708,0.727c-0.273,0.298 -0.534,0.521 -0.782,0.67l1.22,0Z" style="fill-rule:nonzero;"/><path d="M17.674,26.237l0,0.401l-7.823,0l0,-0.401l2.132,0c-0.509,-0.292 -0.911,-0.692 -1.206,-1.201c-0.294,-0.509 -0.442,-1.077 -0.442,-1.704c0,-0.956 0.329,-1.756 0.987,-2.398c0.658,-0.643 1.472,-0.964 2.44,-0.964c0.969,0 1.782,0.321 2.44,0.964c0.658,0.642 0.987,1.442 0.987,2.398c0,0.62 -0.147,1.189 -0.442,1.704c-0.295,0.515 -0.697,0.916 -1.206,1.201l2.133,0Zm-2.282,-4.572c-0.441,-0.46 -0.984,-0.689 -1.63,-0.689c-0.645,0 -1.19,0.229 -1.634,0.689c-0.444,0.459 -0.666,1.016 -0.666,1.671c0,0.655 0.222,1.212 0.666,1.672c0.444,0.459 0.989,0.689 1.634,0.689c0.646,0 1.191,-0.23 1.635,-0.689c0.443,-0.46 0.665,-1.017 0.665,-1.672c0,-0.655 -0.223,-1.212 -0.67,-1.671Z" style="fill-rule:nonzero;"/><path d="M26.828,26.237l0,0.401l-2.002,0l0,-5.085l-2.273,4.517l-0.614,0l-2.263,-4.517l0,5.085l-2.002,0l0,-0.401l0.903,0l0,-6.109l1.713,0l1.965,4.088l1.965,-4.088l1.705,0l0,6.109l0.903,0Z" style="fill-rule:nonzero;"/><path d="M33.198,26.237l0,0.401l-6.37,0l0,-0.401l0.903,0l0,-6.109l2.235,0c0.988,0 1.708,0.189 2.161,0.568c0.453,0.379 0.68,0.962 0.68,1.751c0,0.788 -0.232,1.366 -0.694,1.732c-0.463,0.366 -1.172,0.55 -2.128,0.55l-1.155,0l0,1.508l4.368,0Zm-3.092,-2.505c0.608,0 1.023,-0.116 1.243,-0.349c0.221,-0.233 0.331,-0.574 0.331,-1.025c0,-0.45 -0.14,-0.768 -0.419,-0.954c-0.28,-0.186 -0.717,-0.279 -1.313,-0.279l-1.118,0l0,2.607l1.276,0Z" style="fill-rule:nonzero;"/><path d="M40.21,26.237l0,0.401l-2.011,0l-1.555,-2.189l-1.444,0l0,2.189l-2.002,0l0,-0.401l0.903,0l0,-6.109l2.422,0c0.993,0 1.704,0.168 2.132,0.503c0.429,0.335 0.643,0.872 0.643,1.611c0,1.074 -0.469,1.751 -1.407,2.03l1.416,1.965l0.903,0Zm-3.641,-2.784c0.621,0 1.043,-0.097 1.267,-0.289c0.223,-0.192 0.335,-0.501 0.335,-0.927c0,-0.425 -0.115,-0.717 -0.345,-0.875c-0.229,-0.158 -0.639,-0.237 -1.229,-0.237l-1.397,0l0,2.328l1.369,0Z" style="fill-rule:nonzero;"/><path d="M47.791,26.237l0,0.401l-2.077,0l-0.652,-1.481l-3.259,0l-0.652,1.481l-2.077,0l0,-0.401l1.08,0l2.692,-6.109l1.173,0l2.692,6.109l1.08,0Zm-3.176,-2.095l-1.182,-2.682l-1.183,2.682l2.365,0Z" style="fill-rule:nonzero;"/><path d="M52.019,26.237l0,0.401l-5.131,0l0,-0.401l1.024,0c-0.273,-0.124 -0.518,-0.301 -0.736,-0.531l0.624,-0.866c0.422,0.404 0.835,0.606 1.239,0.606c0.285,0 0.529,-0.097 0.731,-0.289c0.202,-0.193 0.303,-0.481 0.303,-0.866l0,-3.176l-2.068,0l0,-0.987l3.166,0l0,4.107c0,0.968 -0.319,1.636 -0.959,2.002l1.807,0Z" style="fill-rule:nonzero;"/><path d="M59.171,26.237l0,0.401l-7.152,0l0,-0.401l1.928,0c-0.739,-0.515 -1.109,-1.332 -1.109,-2.449l0,-3.66l1.099,0l0,3.613c0,0.596 0.149,1.068 0.447,1.416c0.298,0.348 0.702,0.521 1.211,0.521c0.509,0 0.913,-0.173 1.211,-0.521c0.298,-0.348 0.447,-0.82 0.447,-1.416l0,-3.613l1.099,0l0,3.66c0,1.124 -0.373,1.94 -1.118,2.449l1.937,0Z" style="fill-rule:nonzero;"/><path d="M60.074,26.237l0,-6.109l4.573,0l0,1.034l-3.474,0l0,1.723l3.12,0l0,0.977l-3.12,0l0,1.742l3.586,0l0,0.633l0.903,0l0,0.401l-6.491,0l0,-0.401l0.903,0Z" style="fill-rule:nonzero;"/><path d="M72.311,26.237l0,0.401l-7.049,0l0,-0.401l2.253,0c-0.54,-0.273 -0.97,-0.673 -1.29,-1.201c-0.319,-0.528 -0.479,-1.124 -0.479,-1.788c0,-0.95 0.329,-1.734 0.987,-2.352c0.658,-0.617 1.457,-0.926 2.398,-0.926c0.941,0 1.721,0.273 2.342,0.819l-0.586,0.838c-0.255,-0.217 -0.511,-0.367 -0.769,-0.451c-0.257,-0.084 -0.557,-0.126 -0.898,-0.126c-0.665,0 -1.219,0.199 -1.663,0.596c-0.444,0.397 -0.666,0.941 -0.666,1.63c0,0.689 0.218,1.243 0.652,1.662c0.435,0.419 0.961,0.629 1.579,0.629c0.617,0 1.134,-0.134 1.55,-0.401l0,-1.788l1.099,0l0,2.226c-0.23,0.254 -0.509,0.466 -0.838,0.633l1.378,0Z" style="fill-rule:nonzero;"/><path d="M80.134,26.237l0,0.401l-7.823,0l0,-0.401l2.133,0c-0.509,-0.292 -0.911,-0.692 -1.206,-1.201c-0.295,-0.509 -0.442,-1.077 -0.442,-1.704c0,-0.956 0.329,-1.756 0.987,-2.398c0.658,-0.643 1.471,-0.964 2.44,-0.964c0.968,0 1.782,0.321 2.44,0.964c0.658,0.642 0.987,1.442 0.987,2.398c0,0.62 -0.148,1.189 -0.443,1.704c-0.294,0.515 -0.696,0.916 -1.206,1.201l2.133,0Zm-2.282,-4.572c-0.44,-0.46 -0.984,-0.689 -1.629,-0.689c-0.646,0 -1.191,0.229 -1.635,0.689c-0.444,0.459 -0.666,1.016 -0.666,1.671c0,0.655 0.222,1.212 0.666,1.672c0.444,0.459 0.989,0.689 1.635,0.689c0.645,0 1.19,-0.23 1.634,-0.689c0.444,-0.46 0.666,-1.017 0.666,-1.672c0,-0.655 -0.224,-1.212 -0.671,-1.671Z" style="fill-rule:nonzero;"/><path d="M86.001,26.237l0,0.401l-5.867,0l0,-0.401l1.192,0c-0.298,-0.155 -0.571,-0.347 -0.819,-0.577l0.689,-0.829c0.658,0.571 1.341,0.857 2.049,0.857c0.353,0 0.634,-0.076 0.842,-0.228c0.208,-0.153 0.312,-0.354 0.312,-0.606c0,-0.251 -0.098,-0.447 -0.293,-0.586c-0.196,-0.14 -0.532,-0.267 -1.011,-0.382c-0.478,-0.115 -0.841,-0.221 -1.089,-0.317c-0.248,-0.096 -0.469,-0.222 -0.661,-0.377c-0.385,-0.292 -0.578,-0.739 -0.578,-1.341c0,-0.602 0.219,-1.066 0.657,-1.392c0.438,-0.326 0.979,-0.489 1.625,-0.489c0.416,0 0.829,0.068 1.239,0.205c0.409,0.136 0.763,0.329 1.061,0.577l-0.587,0.829c-0.192,-0.174 -0.453,-0.317 -0.782,-0.429c-0.329,-0.111 -0.653,-0.167 -0.973,-0.167c-0.32,0 -0.582,0.065 -0.787,0.195c-0.205,0.131 -0.307,0.328 -0.307,0.592c0,0.264 0.102,0.465 0.307,0.605c0.205,0.14 0.641,0.29 1.309,0.452c0.667,0.161 1.17,0.388 1.508,0.68c0.339,0.291 0.508,0.701 0.508,1.229c0,0.639 -0.236,1.139 -0.708,1.499l1.164,0Z" style="fill-rule:nonzero;"/></svg>